<svg version="1.1" xmlns="http://www.w3.org/2000/svg" xmlns:xlink="http://www.w3.org/1999/xlink" x="0px" y="0px" viewBox="0 0 500 500" style="enable-background:new 0 0 500 500;" xml:space="preserve">
<g id="BACKGROUND">
	<rect style="fill:rgb(225, 233, 241);" width="500" height="500"/>
</g>
<g id="OBJECTS">
	<g>
		<g>
			<circle style="fill:#FF6866;" cx="484" cy="227.055" r="2.5"/>
			<circle style="fill:#FF6866;" cx="477.892" cy="340.374" r="2.5"/>
			<circle style="fill:#FF6866;" cx="42.779" cy="114.948" r="2.5"/>
			<circle style="fill:#F44946;" cx="48.333" cy="157.41" r="3.054"/>
			<circle style="fill:#F44946;" cx="429.543" cy="124.449" r="3.054"/>
			<circle style="fill:#F44946;" cx="480.946" cy="37.708" r="3.054"/>
			<circle style="fill:#F44946;" cx="287.318" cy="6.5" r="3.054"/>
			<circle style="fill:#F44946;" cx="450" cy="14.331" r="3.054"/>
			<circle style="fill:#F44946;" cx="29.482" cy="176.144" r="3.054"/>
			<circle style="fill:#F44946;" cx="484" cy="132.856" r="3.054"/>
			<circle style="fill:#F44946;" cx="141.03" cy="85.38" r="3.054"/>
			<circle style="fill:#F44946;" cx="123.296" cy="14.331" r="3.054"/>
			<circle style="fill:#3C3C7A;" cx="76.059" cy="104.477" r="3.53"/>
			<circle style="fill:#3C3C7A;" cx="114.446" cy="111.186" r="3.53"/>
			<circle style="fill:#3C3C7A;" cx="26.428" cy="349.61" r="3.53"/>
			<circle style="fill:#3C3C7A;" cx="72.529" cy="31.006" r="3.53"/>
			<circle style="fill:#3C3C7A;" cx="25.667" cy="235.532" r="3.53"/>
			<circle style="fill:#3C3C7A;" cx="167.928" cy="64.748" r="3.53"/>
			<circle style="fill:#5557e0;" cx="67.619" cy="131.783" r="4"/>
			<circle style="fill:#5557e0;" cx="76.059" cy="51.679" r="4"/>
			<circle style="fill:#5557e0;" cx="32.536" cy="18.331" r="4"/>
			<circle style="fill:#5557e0;" cx="446" cy="156.25" r="4"/>
			<circle style="fill:#5557e0;" cx="372.6" cy="17.384" r="4"/>
			<circle style="fill:#5557e0;" cx="247.784" cy="15.558" r="4"/>
			<circle style="fill:#5557e0;" cx="477.892" cy="166.313" r="4"/>
			<circle style="fill:#5557e0;" cx="347.774" cy="109.209" r="4"/>
			<circle style="fill:#1C1D48;" cx="390.859" cy="128.588" r="3.762"/>
			<circle style="fill:#1C1D48;" cx="358.46" cy="88.433" r="3.762"/>
			<circle style="fill:#F9BF44;" cx="372.6" cy="112.448" r="3.239"/>
			<circle style="fill:#F9BF44;" cx="417.142" cy="27.767" r="3.239"/>
			<circle style="fill:#F9BF44;" cx="164.883" cy="100.947" r="3.239"/>
			<circle style="fill:#F9BF44;" cx="214.42" cy="7.739" r="3.239"/>
			<circle style="fill:#F9BF44;" cx="22.428" cy="138.061" r="3.239"/>
			<circle style="fill:#F9BF44;" cx="66.283" cy="154.356" r="3.239"/>
			<circle style="fill:#F9BF44;" cx="68.999" cy="294.455" r="3.239"/>
			<circle style="fill:#F9BF44;" cx="10" cy="31.006" r="3.239"/>
			<circle style="fill:#F9BF44;" cx="465" cy="131.783" r="3.239"/>
			<circle style="fill:#F9BF44;" cx="420.381" cy="275.243" r="3.239"/>
			<circle style="fill:#F9BF44;" cx="453.054" cy="54.048" r="3.239"/>
			<circle style="fill:#F9BF44;" cx="417.142" cy="102.742" r="3.239"/>
			<circle style="fill:#F9BF44;" cx="490.292" cy="270.503" r="3.239"/>
		</g>
		<g>
			<g>
				<defs>
					<rect id="SVGID_1_" y="0.5" width="500" height="500"/>
				</defs>
				<clipPath id="SVGID_00000160885300315834414360000004256252882032752057_">
					<use xlink:href="#SVGID_1_"  style="overflow:visible;"/>
				</clipPath>
				<g style="clip-path:url(#SVGID_00000160885300315834414360000004256252882032752057_);">
					<polygon style="fill:#5557e0;" points="334.483,12.158 321,40.667 334.483,36.667 335.682,53.667 353.543,31.089 					"/>
					<polygon style="fill:#FF6866;" points="366.027,40.816 354.62,63.333 366.027,63.333 371.61,74.333 384.048,51.955 					"/>
					<polygon style="fill:#5557e0;" points="398.97,58.92 391.09,83 404.667,78 412.546,91 419.833,65.664 					"/>
					<polygon style="fill:#FF6866;" points="435.385,68.613 432.674,93.333 444.667,85 455.333,93.333 455.333,70.021 					"/>
					<polygon style="fill:#F9BF44;" points="473.973,69.068 476.333,93.333 485.667,83.333 496.667,91 493.95,65.773 					"/>
					<polygon style="fill:#F9BF44;" points="328.668,4.999 308.667,14 310.098,2.667 300.333,-5.333 321,-13 					"/>
					<path style="fill:none;stroke:#9E0040;stroke-width:3;stroke-miterlimit:10;" d="M321-8c0,0,61.309,104.368,179,71.683"/>
				</g>
				<g style="clip-path:url(#SVGID_00000160885300315834414360000004256252882032752057_);">
					<polygon style="fill:#FF6866;" points="165.256,12.158 178.739,40.667 165.256,36.667 164.057,53.667 146.196,31.089 					"/>
					<polygon style="fill:#F9BF44;" points="133.712,40.816 145.119,63.333 133.712,63.333 128.129,74.333 115.691,51.955 					"/>
					<polygon style="fill:#5557e0;" points="100.769,58.92 108.649,83 95.072,78 87.193,91 79.906,65.664 					"/>
					<polygon style="fill:#F9BF44;" points="64.354,68.613 67.065,93.333 55.072,85 44.406,93.333 44.406,70.021 					"/>
					<polygon style="fill:#FF6866;" points="25.766,69.068 23.406,93.333 14.072,83.333 3.072,91 5.789,65.773 					"/>
					<polygon style="fill:#5557e0;" points="171.071,4.999 191.072,14 189.641,2.667 199.406,-5.333 178.739,-13 					"/>
					<path style="fill:none;stroke:#9E0040;stroke-width:3;stroke-miterlimit:10;" d="M178.739-8c0,0-61.309,104.368-179,71.683"/>
				</g>
			</g>
			
		</g>
	</g>

</g>
<g id="DESIGNED_BY_FREEPIK">
	<g>
		<g id="XMLID_319_">
			<g id="XMLID_338_">
				<path id="XMLID_346_" d="M260.104,465.465c-0.432,0.443-0.803,0.931-1.108,1.453l-0.465-0.241
					c-0.067-0.298-0.349-0.503-0.659-0.466c-0.331,0.039-0.568,0.339-0.529,0.67c0.039,0.331,0.339,0.568,0.67,0.529
					c0.066-0.008,0.127-0.026,0.184-0.052l0.451,0.234c-0.251,0.554-0.433,1.139-0.539,1.744l0.747,0.132
					c0.23-1.306,0.85-2.507,1.792-3.473L260.104,465.465z"/>
				<path id="XMLID_345_" d="M265.592,463.163c-0.171,0-0.341,0.006-0.51,0.017l-0.074-0.626c0.188-0.149,0.296-0.389,0.266-0.645
					c-0.046-0.393-0.402-0.674-0.795-0.628c-0.393,0.046-0.674,0.402-0.628,0.795c0.03,0.254,0.189,0.461,0.404,0.564l0.074,0.624
					c-0.714,0.116-1.403,0.332-2.06,0.646l0.327,0.684c0.934-0.447,1.942-0.673,2.995-0.673c0.496,0,0.993,0.053,1.475,0.158
					l0.161-0.741C266.692,463.222,266.142,463.163,265.592,463.163z"/>
				<path id="XMLID_344_" d="M272.194,465.711c0.331-0.04,0.566-0.341,0.526-0.672c-0.04-0.331-0.341-0.566-0.672-0.526
					c-0.309,0.038-0.535,0.304-0.53,0.609l-0.416,0.363c-0.418-0.43-0.889-0.813-1.408-1.139l-0.404,0.641
					c1.134,0.715,2.021,1.726,2.563,2.925l0.69-0.313c-0.251-0.554-0.567-1.072-0.942-1.545l0.402-0.351
					C272.065,465.716,272.129,465.719,272.194,465.711z"/>
				<path id="XMLID_343_" d="M265.044,473.372c-0.386,0.023-0.775,0.035-1.157,0.035c-0.88,0-1.733-0.061-2.478-0.179
					c-0.39-0.062-0.846-0.155-1.27-0.292c1.046,1.861,3.069,3.125,5.388,3.125c2.855,0,5.262-1.916,5.95-4.504
					c-0.682,0.449-1.505,0.825-2.459,1.123C267.839,473.047,266.463,473.286,265.044,473.372z"/>
				<path id="XMLID_339_" d="M265.592,464.68c-3.352,0-6.08,2.666-6.08,5.943c0,0.426,0.046,0.849,0.137,1.261
					c0.673,0.483,2.706,0.89,5.348,0.731c2.879-0.173,5.297-0.957,6.672-2.159c-0.006-0.195-0.021-0.39-0.045-0.582
					C271.244,466.913,268.65,464.68,265.592,464.68z M263.432,471.194c-1.02,0-1.85-0.83-1.85-1.85c0-1.02,0.83-1.85,1.85-1.85
					c1.02,0,1.85,0.83,1.85,1.85C265.282,470.365,264.452,471.194,263.432,471.194z M268.17,470.286c-0.75,0-1.36-0.61-1.36-1.36
					s0.61-1.361,1.36-1.361c0.75,0,1.361,0.61,1.361,1.361S268.92,470.286,268.17,470.286z"/>
			</g>
			<path id="XMLID_336_" d="M281.595,466.547c-0.295-0.116-0.805-0.309-1.382-0.237c-0.551,0.069-0.844,0.341-0.844,1.007v0.866
				h2.228v1.717h-2.228v5.455h-1.932v-5.455h-1.34v-1.717h1.34v-0.888c0-1.68,0.896-2.783,2.568-2.783
				c0.643,0,1.157,0.122,1.59,0.308L281.595,466.547z"/>
			<path id="XMLID_334_" d="M286.298,469.879c-0.177-0.03-0.358-0.046-0.526-0.046c-0.896,0-1.51,0.548-1.51,1.614v3.908h-1.932
				v-7.172h1.873v0.785c0.451-0.673,1.14-0.977,2.021-0.977c0.414,0,0.848,0.128,1.094,0.337L286.298,469.879z"/>
			<path id="XMLID_331_" d="M293.965,471.757c0,0.222-0.015,0.489-0.037,0.651h-5.085c0.207,1.036,0.933,1.488,1.843,1.488
				c0.622,0,1.295-0.252,1.813-0.688l1.133,1.243c-0.814,0.748-1.85,1.088-3.057,1.088c-2.198,0-3.723-1.495-3.723-3.753
				c0-2.258,1.48-3.797,3.627-3.797C292.544,467.99,293.958,469.522,293.965,471.757z M288.851,471.091h3.175
				c-0.177-0.918-0.733-1.436-1.562-1.436C289.554,469.655,289.021,470.203,288.851,471.091z"/>
			<path id="XMLID_328_" d="M301.618,471.757c0,0.222-0.015,0.489-0.037,0.651h-5.085c0.207,1.036,0.932,1.488,1.843,1.488
				c0.622,0,1.295-0.252,1.814-0.688l1.132,1.243c-0.814,0.748-1.85,1.088-3.057,1.088c-2.198,0-3.723-1.495-3.723-3.753
				c0-2.258,1.48-3.797,3.627-3.797C300.197,467.99,301.611,469.522,301.618,471.757z M296.504,471.091h3.175
				c-0.178-0.918-0.733-1.436-1.562-1.436C297.207,469.655,296.674,470.203,296.504,471.091z"/>
			<path id="XMLID_325_" d="M309.964,471.764c0,2.154-1.495,3.775-3.471,3.775c-0.962,0-1.643-0.378-2.109-0.933v3.708h-1.924
				v-10.133h1.887v0.792c0.466-0.585,1.155-0.984,2.139-0.984C308.469,467.99,309.964,469.61,309.964,471.764z M304.287,471.764
				c0,1.132,0.747,1.976,1.843,1.976c1.14,0,1.85-0.881,1.85-1.976c0-1.095-0.71-1.976-1.85-1.976
				C305.035,469.788,304.287,470.632,304.287,471.764z"/>
			<path id="XMLID_322_" d="M313.068,465.836c0,0.696-0.54,1.229-1.236,1.229c-0.696,0-1.229-0.533-1.229-1.229
				c0-0.696,0.533-1.243,1.229-1.243C312.527,464.592,313.068,465.14,313.068,465.836z M312.809,475.354h-1.932v-7.172h1.932
				V475.354z"/>
			<path id="XMLID_320_" d="M316.032,470.736l2.701-2.554h2.368l-3.479,3.375l3.501,3.797h-2.376l-2.716-2.901v2.901H314.1v-10.658
				h1.932V470.736z"/>
		</g>
		<g>
			<path d="M184.412,475.289v-1.055c-0.527,0.718-1.391,1.23-2.388,1.23c-1.846,0-3.149-1.406-3.149-3.706
				c0-2.256,1.289-3.721,3.149-3.721c0.952,0,1.816,0.469,2.388,1.245v-3.765h1.099v9.77H184.412z M184.412,473.37v-3.208
				c-0.395-0.615-1.245-1.143-2.124-1.143c-1.421,0-2.27,1.172-2.27,2.739c0,1.567,0.85,2.724,2.27,2.724
				C183.168,474.483,184.017,473.986,184.412,473.37z"/>
			<path d="M186.932,471.744c0-2.051,1.465-3.706,3.486-3.706c2.139,0,3.398,1.67,3.398,3.794v0.279h-5.727
				c0.088,1.333,1.025,2.446,2.549,2.446c0.805,0,1.626-0.322,2.182-0.894l0.527,0.718c-0.703,0.703-1.655,1.084-2.812,1.084
				C188.44,475.465,186.932,473.956,186.932,471.744z M190.403,468.947c-1.509,0-2.256,1.274-2.314,2.358h4.643
				C192.718,470.25,192.015,468.947,190.403,468.947z"/>
			<path d="M194.607,474.351l0.571-0.791c0.469,0.542,1.362,1.011,2.329,1.011c1.084,0,1.67-0.513,1.67-1.216
				c0-1.714-4.38-0.659-4.38-3.281c0-1.098,0.952-2.036,2.636-2.036c1.201,0,2.051,0.454,2.622,1.026l-0.513,0.762
				c-0.424-0.513-1.201-0.894-2.109-0.894c-0.967,0-1.567,0.483-1.567,1.113c0,1.552,4.38,0.527,4.38,3.281
				c0,1.187-0.952,2.138-2.783,2.138C196.306,475.465,195.325,475.113,194.607,474.351z"/>
			<path d="M201.477,466.471c0-0.41,0.337-0.747,0.732-0.747c0.41,0,0.747,0.337,0.747,0.747c0,0.41-0.337,0.732-0.747,0.732
				C201.814,467.203,201.477,466.881,201.477,466.471z M201.667,475.289v-7.075h1.099v7.075H201.667z"/>
			<path d="M204.582,477.105l0.556-0.82c0.586,0.703,1.289,0.967,2.3,0.967c1.172,0,2.27-0.571,2.27-2.124v-1.011
				c-0.513,0.718-1.377,1.26-2.373,1.26c-1.845,0-3.149-1.377-3.149-3.662c0-2.27,1.289-3.677,3.149-3.677
				c0.952,0,1.802,0.469,2.373,1.245v-1.069h1.098v6.87c0,2.344-1.641,3.076-3.369,3.076
				C206.237,478.16,205.417,477.926,204.582,477.105z M209.709,473.253v-3.091c-0.381-0.615-1.23-1.143-2.109-1.143
				c-1.421,0-2.27,1.128-2.27,2.695c0,1.553,0.849,2.695,2.27,2.695C208.478,474.41,209.328,473.868,209.709,473.253z"/>
			<path d="M217.413,475.289v-4.629c0-1.245-0.63-1.641-1.582-1.641c-0.865,0-1.685,0.527-2.095,1.099v5.17h-1.099v-7.075h1.099
				v1.025c0.498-0.586,1.465-1.201,2.519-1.201c1.48,0,2.256,0.747,2.256,2.285v4.966H217.413z"/>
			<path d="M219.932,471.744c0-2.051,1.465-3.706,3.486-3.706c2.139,0,3.398,1.67,3.398,3.794v0.279h-5.727
				c0.088,1.333,1.025,2.446,2.549,2.446c0.806,0,1.626-0.322,2.183-0.894l0.527,0.718c-0.703,0.703-1.655,1.084-2.812,1.084
				C221.441,475.465,219.932,473.956,219.932,471.744z M223.404,468.947c-1.509,0-2.256,1.274-2.314,2.358h4.643
				C225.718,470.25,225.015,468.947,223.404,468.947z"/>
			<path d="M233.35,475.289v-1.055c-0.527,0.718-1.392,1.23-2.388,1.23c-1.846,0-3.149-1.406-3.149-3.706
				c0-2.256,1.289-3.721,3.149-3.721c0.952,0,1.817,0.469,2.388,1.245v-3.765h1.098v9.77H233.35z M233.35,473.37v-3.208
				c-0.396-0.615-1.245-1.143-2.124-1.143c-1.421,0-2.27,1.172-2.27,2.739c0,1.567,0.849,2.724,2.27,2.724
				C232.105,474.483,232.954,473.986,233.35,473.37z"/>
			<path d="M239.692,475.289v-9.77h1.098v3.765c0.572-0.776,1.421-1.245,2.388-1.245c1.845,0,3.149,1.465,3.149,3.721
				c0,2.299-1.304,3.706-3.149,3.706c-0.996,0-1.86-0.513-2.388-1.23v1.055H239.692z M242.9,474.483
				c1.436,0,2.285-1.157,2.285-2.724c0-1.568-0.85-2.739-2.285-2.739c-0.864,0-1.728,0.527-2.109,1.143v3.208
				C241.171,473.986,242.036,474.483,242.9,474.483z"/>
			<path d="M247.528,477.061c0.161,0.073,0.425,0.117,0.601,0.117c0.483,0,0.805-0.161,1.055-0.747l0.469-1.069l-2.959-7.148h1.187
				l2.358,5.8l2.344-5.8h1.201l-3.545,8.51c-0.425,1.025-1.143,1.421-2.08,1.435c-0.234,0-0.601-0.044-0.805-0.103L247.528,477.061z
				"/>
		</g>
	</g>
</g>
</svg>