<svg version="1.1" xmlns="http://www.w3.org/2000/svg" xmlns:xlink="http://www.w3.org/1999/xlink" x="0px" y="0px" viewBox="0 0 500 500" style="enable-background:new 0 0 500 500;" xml:space="preserve">
<g id="BACKGROUND">
	<rect style="fill:rgb(225, 233, 241);" width="500" height="500"/>
</g>
<g id="OBJECTS">
	<g>
		<g>
			<circle style="fill:#FF6866;" cx="484" cy="227.055" r="2.5"/>
			<circle style="fill:#FF6866;" cx="477.892" cy="340.374" r="2.5"/>
			<circle style="fill:#FF6866;" cx="42.779" cy="114.948" r="2.5"/>
			<circle style="fill:#F44946;" cx="48.333" cy="157.41" r="3.054"/>
			<circle style="fill:#F44946;" cx="429.543" cy="124.449" r="3.054"/>
			<circle style="fill:#F44946;" cx="480.946" cy="37.708" r="3.054"/>
			<circle style="fill:#F44946;" cx="287.318" cy="6.5" r="3.054"/>
			<circle style="fill:#F44946;" cx="450" cy="14.331" r="3.054"/>
			<circle style="fill:#F44946;" cx="29.482" cy="176.144" r="3.054"/>
			<circle style="fill:#F44946;" cx="484" cy="132.856" r="3.054"/>
			<circle style="fill:#F44946;" cx="141.03" cy="85.38" r="3.054"/>
			<circle style="fill:#F44946;" cx="123.296" cy="14.331" r="3.054"/>
			<circle style="fill:#3C3C7A;" cx="76.059" cy="104.477" r="3.53"/>
			<circle style="fill:#3C3C7A;" cx="114.446" cy="111.186" r="3.53"/>
			<circle style="fill:#3C3C7A;" cx="26.428" cy="349.61" r="3.53"/>
			<circle style="fill:#3C3C7A;" cx="72.529" cy="31.006" r="3.53"/>
			<circle style="fill:#3C3C7A;" cx="25.667" cy="235.532" r="3.53"/>
			<circle style="fill:#3C3C7A;" cx="167.928" cy="64.748" r="3.53"/>
			<circle style="fill:#5557e0;" cx="67.619" cy="131.783" r="4"/>
			<circle style="fill:#5557e0;" cx="76.059" cy="51.679" r="4"/>
			<circle style="fill:#5557e0;" cx="32.536" cy="18.331" r="4"/>
			<circle style="fill:#5557e0;" cx="446" cy="156.25" r="4"/>
			<circle style="fill:#5557e0;" cx="372.6" cy="17.384" r="4"/>
			<circle style="fill:#5557e0;" cx="247.784" cy="15.558" r="4"/>
			<circle style="fill:#5557e0;" cx="477.892" cy="166.313" r="4"/>
			<circle style="fill:#5557e0;" cx="347.774" cy="109.209" r="4"/>
			<circle style="fill:#1C1D48;" cx="390.859" cy="128.588" r="3.762"/>
			<circle style="fill:#1C1D48;" cx="358.46" cy="88.433" r="3.762"/>
			<circle style="fill:#F9BF44;" cx="372.6" cy="112.448" r="3.239"/>
			<circle style="fill:#F9BF44;" cx="417.142" cy="27.767" r="3.239"/>
			<circle style="fill:#F9BF44;" cx="164.883" cy="100.947" r="3.239"/>
			<circle style="fill:#F9BF44;" cx="214.42" cy="7.739" r="3.239"/>
			<circle style="fill:#F9BF44;" cx="22.428" cy="138.061" r="3.239"/>
			<circle style="fill:#F9BF44;" cx="66.283" cy="154.356" r="3.239"/>
			<circle style="fill:#F9BF44;" cx="68.999" cy="294.455" r="3.239"/>
			<circle style="fill:#F9BF44;" cx="10" cy="31.006" r="3.239"/>
			<circle style="fill:#F9BF44;" cx="465" cy="131.783" r="3.239"/>
			<circle style="fill:#F9BF44;" cx="420.381" cy="275.243" r="3.239"/>
			<circle style="fill:#F9BF44;" cx="453.054" cy="54.048" r="3.239"/>
			<circle style="fill:#F9BF44;" cx="417.142" cy="102.742" r="3.239"/>
			<circle style="fill:#F9BF44;" cx="490.292" cy="270.503" r="3.239"/>
		</g>
		<g>
			<g>
				<defs>
					<rect id="SVGID_1_" y="0.5" width="500" height="500"/>
				</defs>
				<clipPath id="SVGID_00000160885300315834414360000004256252882032752057_">
					<use xlink:href="#SVGID_1_"  style="overflow:visible;"/>
				</clipPath>
				<g style="clip-path:url(#SVGID_00000160885300315834414360000004256252882032752057_);">
					<polygon style="fill:#5557e0;" points="334.483,12.158 321,40.667 334.483,36.667 335.682,53.667 353.543,31.089 					"/>
					<polygon style="fill:#FF6866;" points="366.027,40.816 354.62,63.333 366.027,63.333 371.61,74.333 384.048,51.955 					"/>
					<polygon style="fill:#5557e0;" points="398.97,58.92 391.09,83 404.667,78 412.546,91 419.833,65.664 					"/>
					<polygon style="fill:#FF6866;" points="435.385,68.613 432.674,93.333 444.667,85 455.333,93.333 455.333,70.021 					"/>
					<polygon style="fill:#F9BF44;" points="473.973,69.068 476.333,93.333 485.667,83.333 496.667,91 493.95,65.773 					"/>
					<polygon style="fill:#F9BF44;" points="328.668,4.999 308.667,14 310.098,2.667 300.333,-5.333 321,-13 					"/>
					<path style="fill:none;stroke:#9E0040;stroke-width:3;stroke-miterlimit:10;" d="M321-8c0,0,61.309,104.368,179,71.683"/>
				</g>
				<g style="clip-path:url(#SVGID_00000160885300315834414360000004256252882032752057_);">
					<polygon style="fill:#FF6866;" points="165.256,12.158 178.739,40.667 165.256,36.667 164.057,53.667 146.196,31.089 					"/>
					<polygon style="fill:#F9BF44;" points="133.712,40.816 145.119,63.333 133.712,63.333 128.129,74.333 115.691,51.955 					"/>
					<polygon style="fill:#5557e0;" points="100.769,58.92 108.649,83 95.072,78 87.193,91 79.906,65.664 					"/>
					<polygon style="fill:#F9BF44;" points="64.354,68.613 67.065,93.333 55.072,85 44.406,93.333 44.406,70.021 					"/>
					<polygon style="fill:#FF6866;" points="25.766,69.068 23.406,93.333 14.072,83.333 3.072,91 5.789,65.773 					"/>
					<polygon style="fill:#5557e0;" points="171.071,4.999 191.072,14 189.641,2.667 199.406,-5.333 178.739,-13 					"/>
					<path style="fill:none;stroke:#9E0040;stroke-width:3;stroke-miterlimit:10;" d="M178.739-8c0,0-61.309,104.368-179,71.683"/>
				</g>
			</g>
			
		</g>
	</g>

</g>

</svg>