     <svg version="1.1" xmlns="http://www.w3.org/2000/svg" xmlns:xlink="http://www.w3.org/1999/xlink" x="0px" y="0px" viewBox="0 0 500 500" style="enable-background:new 0 0 500 500;" xml:space="preserve">
            <g id="BACKGROUND">
                <rect style="fill:#FFFFFF;" width="500" height="500"/>
            </g>
            <g id="OBJECTS">
                <g>
                    <g>
                        <path style="fill:#07293E;" d="M203.977,202.293c-3.489,0.235-6.509-2.404-6.744-5.894l-1.09-16.213l-24.957-13.125
                            c-3.094-1.628-4.284-5.456-2.658-8.552c1.629-3.097,5.454-4.289,8.555-2.658l28.09,14.773c1.947,1.024,3.222,2.985,3.37,5.18
                            l1.328,19.746C210.105,199.039,207.466,202.059,203.977,202.293z"/>
                    </g>
                    <g>
                        <path style="fill:#07293E;" d="M280.618,286.001l-77.073,5.182c-3.489,0.235-6.509-2.404-6.744-5.894
                            c-0.235-3.489,2.404-6.509,5.894-6.744l77.073-5.182c2.409-0.162,4.485-1.647,5.417-3.873l24.09-64.858
                            c1.221-3.278,4.874-4.952,8.142-3.73c3.28,1.217,4.951,4.863,3.733,8.142l-24.185,65.098
                            C294.071,281.064,287.844,285.515,280.618,286.001z"/>
                    </g>
                    <path style="fill:#F15513;" d="M304.386,259.014l-89.903,6.045c-6.979,0.469-13.018-4.808-13.487-11.787l-3.824-56.868
                        l121.496-8.169c9.395-0.632,16.169,8.844,12.533,17.529l-15.982,45.505C313.366,255.693,309.172,258.692,304.386,259.014z"/>
                    <g>
                        <g>
                            <g>
                                <path style="fill:#07293E;" d="M312.503,210.864l-94.887,6.38c-1.746,0.117-3.254-1.202-3.372-2.947
                                    c-0.117-1.745,1.201-3.254,2.947-3.372l94.887-6.38c1.746-0.117,3.254,1.202,3.372,2.947
                                    C315.567,209.237,314.249,210.747,312.503,210.864z"/>
                            </g>
                            <g>
                                <path style="fill:#07293E;" d="M300.927,227.51l-82.25,5.53c-1.746,0.117-3.254-1.202-3.372-2.947
                                    c-0.117-1.745,1.2-3.254,2.947-3.372l82.25-5.53c1.746-0.117,3.254,1.202,3.372,2.947
                                    C303.991,225.883,302.674,227.393,300.927,227.51z"/>
                            </g>
                            <g>
                                <path style="fill:#07293E;" d="M289.019,244.179l-69.28,4.658c-1.746,0.117-3.254-1.202-3.372-2.947
                                    c-0.117-1.745,1.201-3.254,2.947-3.372l69.28-4.658c1.746-0.117,3.254,1.202,3.372,2.947
                                    C292.083,242.552,290.765,244.061,289.019,244.179z"/>
                            </g>
                        </g>
                    </g>
                    <g>
                        <path style="fill:#35B3F1;" d="M224.754,297.691c0.469,6.979-4.808,13.018-11.788,13.487
                            c-6.979,0.469-13.018-4.808-13.487-11.788c-0.469-6.979,4.808-13.018,11.787-13.487
                            C218.246,285.434,224.285,290.711,224.754,297.691z"/>
                        <path style="fill:#FFFFFF;" d="M218.435,298.116c0.235,3.49-2.404,6.509-5.894,6.744c-3.49,0.235-6.509-2.404-6.744-5.894
                            c-0.235-3.489,2.404-6.509,5.894-6.744C215.181,291.987,218.201,294.626,218.435,298.116z"/>
                    </g>
                    <g>
                        <path style="fill:#35B3F1;" d="M293.065,293.098c0.469,6.979-4.808,13.018-11.788,13.487
                            c-6.979,0.469-13.018-4.808-13.487-11.787c-0.469-6.979,4.808-13.018,11.787-13.487
                            C286.557,280.841,292.595,286.118,293.065,293.098z"/>
                        <path style="fill:#FFFFFF;" d="M286.746,293.523c0.235,3.49-2.404,6.509-5.894,6.743c-3.49,0.235-6.509-2.404-6.743-5.894
                            c-0.235-3.489,2.404-6.509,5.894-6.744C283.492,287.394,286.511,290.033,286.746,293.523z"/>
                    </g>
                </g>
                <g>
                    <path style="fill:#35B3F1;" d="M177.609,216.827c0.235,3.49-2.404,6.509-5.894,6.743c-3.49,0.235-6.509-2.404-6.743-5.894
                        c-0.235-3.489,2.404-6.509,5.894-6.744C174.355,210.698,177.374,213.337,177.609,216.827z"/>
                    <path style="fill:#35B3F1;" d="M335.028,151.4c0.235,3.49-2.404,6.509-5.894,6.743c-3.49,0.235-6.509-2.404-6.743-5.894
                        c-0.235-3.489,2.404-6.509,5.894-6.744C331.775,145.271,334.794,147.91,335.028,151.4z"/>
                    <path style="fill:#35B3F1;" d="M202.322,128.106c0.235,3.49-2.404,6.509-5.894,6.743c-3.49,0.235-6.509-2.404-6.743-5.894
                        c-0.235-3.489,2.404-6.509,5.894-6.744C199.068,121.978,202.087,124.617,202.322,128.106z"/>
                </g>
            </g>

        </svg>