<svg version="1.1" xmlns="http://www.w3.org/2000/svg" xmlns:xlink="http://www.w3.org/1999/xlink" x="0px" y="0px"
	 viewBox="0 0 500 500" style="enable-background:new 0 0 500 500;" xml:space="preserve">
	<g id="BACKGROUND">
		<linearGradient id="SVGID_1_" gradientUnits="userSpaceOnUse" x1="250" y1="411.25" x2="250" y2="-162.17">
			<stop  offset="0" style="stop-color:#95abe7"/>
			<stop  offset="0.9944" style="stop-color:hsl(215, 61%, 73%)"/>
		</linearGradient>
		<rect style="fill:url(#SVGID_1_);" width="500" height="500"/>
	</g>
	<g id="OBJECTS">
		
			<linearGradient id="SVGID_00000156550476355649032980000017898055077531742136_" gradientUnits="userSpaceOnUse" x1="266.0062" y1="-21.9375" x2="235.0061" y2="422.0638">
			<stop  offset="0" style="stop-color:#FFFFFF"/>
			<stop  offset="1" style="stop-color:#FFFFFF;stop-opacity:0"/>
		</linearGradient>
		<circle style="fill:url(#SVGID_00000156550476355649032980000017898055077531742136_);" cx="244.364" cy="288.032" r="147.738"/>
		<g>
			<g>
				
					<linearGradient id="SVGID_00000022557757148839793890000004521130325878368157_" gradientUnits="userSpaceOnUse" x1="61.8568" y1="183.75" x2="61.8568" y2="229.883">
					<stop  offset="0" style="stop-color:#FFFFFF"/>
					<stop  offset="1" style="stop-color:#FFFFFF;stop-opacity:0"/>
				</linearGradient>
				<path style="fill:url(#SVGID_00000022557757148839793890000004521130325878368157_);" d="M92.685,210.056
					c2.023-4.104-0.664-9.479-5.177-10.384c-3.944-0.791-5.852,0.613-6.63,1.498c2.129-3.555,2.943-12.953-7.328-14.624
					c-8.589-1.397-9.541,5.959-9.549,9.217c-0.345-3.397-2.338-11.232-13.505-8.734c-10.531,2.356-8.876,11.411-7.35,15.872
					c-1.042-1.482-3.106-2.923-7.152-2.114c-7.437,1.487-5.392,9.254-5.392,9.254s0,0,0,0c0.29,0.595-0.046,1.306-0.691,1.456
					c-2.037,0.476-3.72,1.56-3.72,3.749v0h71.33v0C97.522,212.497,95.387,210.245,92.685,210.056z"/>
				
					<linearGradient id="SVGID_00000024695686279913026460000005864696891960068519_" gradientUnits="userSpaceOnUse" x1="378.354" y1="96.25" x2="378.354" y2="142.2527">
					<stop  offset="0" style="stop-color:#FFFFFF"/>
					<stop  offset="1" style="stop-color:#FFFFFF;stop-opacity:0"/>
				</linearGradient>
				<path style="fill:url(#SVGID_00000024695686279913026460000005864696891960068519_);" d="M409.182,123.108
					c2.023-4.104-0.664-9.479-5.177-10.384c-3.944-0.791-5.852,0.613-6.63,1.498c2.129-3.555,2.943-12.953-7.328-14.624
					c-8.589-1.397-9.541,5.959-9.549,9.217c-0.345-3.397-2.338-11.232-13.505-8.734c-10.531,2.356-8.876,11.411-7.349,15.872
					c-1.042-1.482-3.106-2.923-7.152-2.114c-7.437,1.487-5.392,9.254-5.392,9.254s0,0,0,0c0.29,0.595-0.046,1.306-0.691,1.456
					c-2.037,0.476-3.72,1.56-3.72,3.749v0h71.33v0C414.019,125.548,411.885,123.297,409.182,123.108z"/>
				
					<linearGradient id="SVGID_00000031184783957985871060000004117831619964163746_" gradientUnits="userSpaceOnUse" x1="136.8892" y1="55.75" x2="136.8892" y2="120.7501">
					<stop  offset="0" style="stop-color:#FFFFFF"/>
					<stop  offset="1" style="stop-color:#FFFFFF;stop-opacity:0"/>
				</linearGradient>
				<path style="fill:url(#SVGID_00000031184783957985871060000004117831619964163746_);" d="M179.669,108.653H94.11
					c0-2.212,0.898-4.215,2.346-5.666c1.373-1.371,3.242-2.249,5.317-2.338c-0.947-2.535-1.471-6.876,2.924-11.455
					c6.707-6.988,14.508,2.678,14.868,3.13c-0.297-0.458-6.639-10.404-0.561-15.435c7.944-6.576,15.452,0.858,16.024,5.151
					c0,0,0.558-18.886,20.738-18.314c19.192,0.544,25.825,21.788,13.881,36.914h2.009
					C176.08,100.641,179.669,104.229,179.669,108.653z"/>
				
					<linearGradient id="SVGID_00000142171067698447550200000014832231158068887978_" gradientUnits="userSpaceOnUse" x1="437.2834" y1="186.2501" x2="437.2834" y2="252.7521">
					<stop  offset="0" style="stop-color:#FFFFFF"/>
					<stop  offset="1" style="stop-color:#FFFFFF;stop-opacity:0"/>
				</linearGradient>
				<path style="fill:url(#SVGID_00000142171067698447550200000014832231158068887978_);" d="M480.063,244.841h-85.559
					c0-2.212,0.898-4.215,2.346-5.666c1.373-1.37,3.242-2.249,5.317-2.338c-0.947-2.535-1.471-6.876,2.924-11.455
					c6.707-6.988,14.508,2.678,14.868,3.13c-0.297-0.458-6.639-10.404-0.561-15.435c7.944-6.576,15.452,0.859,16.024,5.151
					c0,0,0.558-18.886,20.738-18.314c19.192,0.544,25.825,21.788,13.881,36.914h2.009
					C476.474,236.829,480.063,240.417,480.063,244.841z"/>
			</g>
		</g>
		<g>
			<g>
				<path style="fill:#328ce0;" d="M500,500V392.468c-167.674-25.001-334.34-25.001-500,0V500H500z"/>
			</g>
			<path style="opacity:0.15;" d="M0,392.468c0,0,60.314,64.032,253.392,64.032S500,392.468,500,392.468V500H0V392.468z"/>
		</g>
		<g>
			
				<rect x="38.437" y="163.437" transform="matrix(0.9309 0.3653 -0.3653 0.9309 64.682 -3.0597)" style="fill:#f51d00;" width="3.981" height="11.942"/>
			
				<rect x="152.337" y="121.112" transform="matrix(0.8288 0.5595 -0.5595 0.8288 96.421 -64.567)" style="fill:#f51d00;" width="2.79" height="8.371"/>
			
				<rect x="152.337" y="81.414" transform="matrix(0.7499 -0.6615 0.6615 0.7499 -18.1825 123.0988)" style="fill:#f51d00;" width="2.79" height="8.371"/>
			
				<rect x="281.002" y="13.717" transform="matrix(0.7499 -0.6615 0.6615 0.7499 58.7719 191.2818)" style="fill:#f51d00;" width="2.79" height="8.371"/>
			
				<rect x="100.138" y="117.381" transform="matrix(0.7867 0.6174 -0.6174 0.7867 97.449 -36.7421)" style="fill:#f51d00;" width="3.502" height="10.507"/>
			
				<rect x="21.099" y="99.622" transform="matrix(0.9509 0.3096 -0.3096 0.9509 33.2437 -1.8638)" style="fill:#84a3d3;" width="2.79" height="8.371"/>
			
				<rect x="66.558" y="258.1" transform="matrix(0.7071 -0.7071 0.7071 0.7071 -165.5605 124.8719)" style="fill:#659ef3;" width="2.79" height="8.371"/>
			
				<rect x="57.415" y="298.804" transform="matrix(0.9807 -0.1956 0.1956 0.9807 -58.1366 17.3592)" style="fill:#f51d00;" width="2.791" height="8.371"/>
			
				<rect x="38.495" y="348.312" transform="matrix(0.1892 -0.9819 0.9819 0.1892 -313.7878 324.9678)" style="fill:#659ef3;" width="2.79" height="8.371"/>
			
				<rect x="170.925" y="336.512" transform="matrix(0.1892 -0.9819 0.9819 0.1892 -194.8294 445.4383)" style="fill:#f51d00;" width="2.79" height="8.371"/>
			
				<rect x="168.979" y="186.934" transform="matrix(0.7071 -0.7071 0.7071 0.7071 -85.2406 176.4503)" style="fill:#f51d00;" width="2.79" height="8.371"/>
			
				<rect x="71.091" y="132.487" transform="matrix(0.9729 -0.2313 0.2313 0.9729 -29.6504 20.4753)" style="fill:#659ef3;" width="2.79" height="8.371"/>
			
				<rect x="225.898" y="18.779" transform="matrix(6.123234e-17 -1 1 6.123234e-17 204.3281 250.2575)" style="fill:#659ef3;" width="2.79" height="8.371"/>
			
				<rect x="174.833" y="288.129" transform="matrix(0.9729 -0.2313 0.2313 0.9729 -62.8429 48.6976)" style="fill:#f51d00;" width="2.79" height="8.371"/>
			
				<rect x="147.197" y="219.917" transform="matrix(-0.7956 -0.6058 0.6058 -0.7956 131.0431 492.4183)" style="fill:#f51d00;" width="2.79" height="8.371"/>
			
				<rect x="33.349" y="219.917" transform="matrix(-0.7956 -0.6058 0.6058 -0.7956 -73.3777 423.4476)" style="fill:#659ef3;" width="2.79" height="8.371"/>
			<path style="fill:#659ef3;" d="M187.814,86.04c0,0.834-0.676,1.511-1.511,1.511s-1.511-0.676-1.511-1.511
				c0-0.834,0.676-1.511,1.511-1.511S187.814,85.206,187.814,86.04z"/>
			<path style="fill:#659ef3;" d="M53.761,90.266c0,0.834-0.676,1.511-1.511,1.511c-0.834,0-1.511-0.676-1.511-1.511
				c0-0.834,0.676-1.511,1.511-1.511C53.084,88.755,53.761,89.432,53.761,90.266z"/>
			<path style="fill:#659ef3;" d="M93.661,19.692c0,0.834-0.676,1.511-1.511,1.511c-0.834,0-1.511-0.676-1.511-1.511
				c0-0.834,0.676-1.511,1.511-1.511C92.984,18.182,93.661,18.858,93.661,19.692z"/>
			<path style="fill:#f51d00;" d="M70.975,214.428c0,0.834-0.676,1.511-1.511,1.511s-1.511-0.676-1.511-1.511
				s0.676-1.511,1.511-1.511S70.975,213.594,70.975,214.428z"/>
			<path style="fill:#659ef3;" d="M36.316,311.674c0,0.868-0.704,1.572-1.572,1.572c-0.868,0-1.572-0.704-1.572-1.572
				c0-0.868,0.704-1.572,1.572-1.572C35.612,310.102,36.316,310.806,36.316,311.674z"/>
			<path style="fill:#f51d00;" d="M39.829,267.624c0,0.834-0.676,1.511-1.511,1.511s-1.511-0.677-1.511-1.511
				c0-0.834,0.676-1.511,1.511-1.511S39.829,266.79,39.829,267.624z"/>
			
				<rect x="138.958" y="33.585" transform="matrix(0.4042 -0.9147 0.9147 0.4042 49.0707 150.8772)" style="fill:#f51d00;" width="2.79" height="8.371"/>
			
				<rect x="27.873" y="52.565" transform="matrix(-0.7867 -0.6174 0.6174 -0.7867 17.2575 119.4642)" style="fill:#f51d00;" width="2.79" height="8.371"/>
			
				<rect x="130.96" y="155.997" transform="matrix(0.8452 -0.5344 0.5344 0.8452 -65.1164 95.5197)" style="fill:#f51d00;" width="2.79" height="8.371"/>
			
				<rect x="59.858" y="43.537" transform="matrix(0.8452 -0.5344 0.5344 0.8452 -16.0228 40.1188)" style="fill:#f51d00;" width="2.79" height="8.371"/>
			<path style="fill:#f51d00;" d="M181.561,24.755c0,0.834-0.676,1.511-1.511,1.511c-0.835,0-1.511-0.676-1.511-1.511
				c0-0.834,0.676-1.511,1.511-1.511C180.884,23.244,181.561,23.92,181.561,24.755z"/>
			<path style="fill:#f51d00;" d="M32.29,23.244c0,0.834-0.676,1.511-1.511,1.511c-0.835,0-1.511-0.676-1.511-1.511
				c0-0.834,0.676-1.511,1.511-1.511C31.613,21.733,32.29,22.41,32.29,23.244z"/>
			<circle style="fill:#f51d00;" cx="38.318" cy="136.982" r="1.572"/>
			<path style="fill:#f51d00;" d="M197.698,52.035c0,0.834-0.676,1.511-1.511,1.511s-1.511-0.676-1.511-1.511
				c0-0.834,0.676-1.511,1.511-1.511S197.698,51.2,197.698,52.035z"/>
			<path style="fill:#f51d00;" d="M221.595,78.037c0,0.834-0.676,1.511-1.511,1.511c-0.834,0-1.511-0.676-1.511-1.511
				c0-0.834,0.676-1.511,1.511-1.511C220.919,76.526,221.595,77.203,221.595,78.037z"/>
			<path style="fill:#f51d00;" d="M199.209,123.505c0,0.834-0.676,1.511-1.511,1.511c-0.834,0-1.511-0.676-1.511-1.511
				c0-0.834,0.676-1.511,1.511-1.511C198.533,121.994,199.209,122.671,199.209,123.505z"/>
			<path style="fill:#f51d00;" d="M116.717,200.81c0,0.834-0.676,1.511-1.511,1.511c-0.834,0-1.511-0.676-1.511-1.511
				c0-0.835,0.676-1.511,1.511-1.511C116.04,199.299,116.717,199.975,116.717,200.81z"/>
			<path style="fill:#659ef3;" d="M173.831,160.182c0,0.834-0.676,1.511-1.511,1.511c-0.834,0-1.511-0.676-1.511-1.511
				c0-0.834,0.676-1.511,1.511-1.511C173.154,158.671,173.831,159.348,173.831,160.182z"/>
			<circle style="fill:#f51d00;" cx="93.94" cy="173.032" r="1.511"/>
			
				<rect x="114.993" y="242.14" transform="matrix(0.7867 0.6174 -0.6174 0.7867 177.6416 -19.2975)" style="fill:#f51d00;" width="3.502" height="10.507"/>
			<path style="fill:#f51d00;" d="M87.34,343.405c0,0.834-0.676,1.511-1.511,1.511c-0.834,0-1.511-0.676-1.511-1.511
				c0-0.835,0.676-1.511,1.511-1.511C86.664,341.895,87.34,342.571,87.34,343.405z"/>
			
				<rect x="147.197" y="273.042" transform="matrix(0.8452 -0.5344 0.5344 0.8452 -125.1514 122.3112)" style="fill:#f51d00;" width="2.79" height="8.371"/>
			<path style="fill:#f51d00;" d="M131.571,332.554c0,0.834-0.676,1.511-1.511,1.511c-0.834,0-1.511-0.676-1.511-1.511
				c0-0.835,0.676-1.511,1.511-1.511C130.895,331.043,131.571,331.72,131.571,332.554z"/>
			<path style="fill:#f51d00;" d="M110.306,297.79c0,0.834-0.676,1.511-1.511,1.511c-0.834,0-1.511-0.676-1.511-1.511
				c0-0.834,0.676-1.511,1.511-1.511C109.629,296.28,110.306,296.956,110.306,297.79z"/>
			
				<rect x="459.708" y="163.158" transform="matrix(-0.9309 0.3653 -0.3653 -0.9309 953.272 157.9115)" style="fill:#f51d00;" width="3.981" height="11.942"/>
			
				<rect x="432.777" y="257.82" transform="matrix(-0.7071 -0.7071 0.7071 -0.7071 555.9138 754.278)" style="fill:#659ef3;" width="2.79" height="8.371"/>
			
				<rect x="469.506" y="311.435" transform="matrix(-0.7071 -0.7071 0.7071 -0.7071 580.688 871.778)" style="fill:#659ef3;" width="2.79" height="8.371"/>
			
				<rect x="441.92" y="298.525" transform="matrix(-0.9807 -0.1956 0.1956 -0.9807 818.8595 686.2834)" style="fill:#f51d00;" width="2.791" height="8.371"/>
			
				<rect x="458.225" y="346.15" transform="matrix(-0.1893 -0.9819 0.9819 -0.1893 202.6008 867.9525)" style="fill:#659ef3;" width="2.79" height="8.371"/>
			
				<rect x="328.41" y="336.233" transform="matrix(-0.1892 -0.9819 0.9819 -0.1892 57.942 728.6802)" style="fill:#659ef3;" width="2.79" height="8.371"/>
			
				<rect x="296.018" y="168.146" transform="matrix(-0.7071 -0.7071 0.7071 -0.7071 385.8597 504.4921)" style="fill:#f51d00;" width="2.79" height="8.371"/>
			
				<rect x="451.884" y="29.067" transform="matrix(-0.5595 -0.8288 0.8288 -0.5595 678.8443 430.3969)" style="fill:#f51d00;" width="3.824" height="11.471"/>
			
				<rect x="425.548" y="59.304" transform="matrix(-0.9729 -0.2313 0.2313 -0.9729 827.6199 224.018)" style="fill:#659ef3;" width="2.79" height="8.371"/>
			
				<rect x="463.923" y="102.299" transform="matrix(-0.4676 -0.884 0.884 -0.4676 588.7576 567.5948)" style="fill:#659ef3;" width="2.79" height="8.371"/>
			
				<rect x="316.345" y="287.85" transform="matrix(-0.9729 -0.2313 0.2313 -0.9729 559.3045 649.653)" style="fill:#f51d00;" width="2.79" height="8.371"/>
			
				<rect x="342.513" y="223.2" transform="matrix(0.7956 -0.6058 0.6058 0.7956 -67.4601 254.8304)" style="fill:#f51d00;" width="2.79" height="8.371"/>
			
				<rect x="465.986" y="219.637" transform="matrix(0.7956 -0.6058 0.6058 0.7956 -40.0652 328.8951)" style="fill:#659ef3;" width="2.79" height="8.371"/>
			
				<rect x="299.216" y="232.468" transform="matrix(0.7956 -0.6058 0.6058 0.7956 -81.9249 230.494)" style="fill:#659ef3;" width="2.79" height="8.371"/>
			<path style="fill:#659ef3;" d="M408.465,19.413c0,0.834,0.676,1.511,1.511,1.511c0.834,0,1.511-0.676,1.511-1.511
				s-0.676-1.511-1.511-1.511C409.141,17.903,408.465,18.579,408.465,19.413z"/>
			<path style="fill:#f51d00;" d="M470.902,72.456c0,0.868,0.704,1.572,1.572,1.572c0.868,0,1.572-0.704,1.572-1.572
				c0-0.868-0.704-1.572-1.572-1.572C471.605,70.884,470.902,71.588,470.902,72.456z"/>
			<path style="fill:#f51d00;" d="M431.151,214.149c0,0.834,0.676,1.511,1.511,1.511c0.835,0,1.511-0.676,1.511-1.511
				s-0.676-1.511-1.511-1.511C431.827,212.639,431.151,213.315,431.151,214.149z"/>
			<path style="fill:#f51d00;" d="M462.297,267.345c0,0.834,0.676,1.511,1.511,1.511c0.834,0,1.511-0.676,1.511-1.511
				c0-0.834-0.676-1.511-1.511-1.511C462.973,265.834,462.297,266.51,462.297,267.345z"/>
			
				<rect x="352.374" y="30.617" transform="matrix(-0.4042 -0.9147 0.9147 -0.4042 464.9438 372.4477)" style="fill:#f51d00;" width="2.79" height="8.371"/>
			<path style="fill:#f51d00;" d="M390.476,86.845c0,0.834,0.676,1.511,1.511,1.511c0.834,0,1.511-0.676,1.511-1.511
				c0-0.834-0.676-1.511-1.511-1.511C391.152,85.334,390.476,86.011,390.476,86.845z"/>
			<path style="fill:#f51d00;" d="M345.93,18.182c0,0.834,0.676,1.511,1.511,1.511c0.834,0,1.511-0.676,1.511-1.511
				s-0.676-1.511-1.511-1.511C346.607,16.671,345.93,17.347,345.93,18.182z"/>
			<circle style="fill:#f51d00;" cx="472.473" cy="138.275" r="1.572"/>
			<path style="fill:#f51d00;" d="M394.811,49.233c0,0.834,0.676,1.511,1.511,1.511c0.834,0,1.511-0.676,1.511-1.511
				c0-0.834-0.676-1.511-1.511-1.511C395.487,47.722,394.811,48.399,394.811,49.233z"/>
			<circle style="fill:#659ef3;" cx="329.805" cy="159.903" r="1.511"/>
			<path style="fill:#659ef3;" d="M429.64,88.356c0,0.834,0.676,1.511,1.511,1.511s1.511-0.676,1.511-1.511
				c0-0.835-0.676-1.511-1.511-1.511S429.64,87.521,429.64,88.356z"/>
			
				<rect x="396.081" y="244.746" transform="matrix(-0.7867 0.6174 -0.6174 -0.7867 865.1379 201.044)" style="fill:#f51d00;" width="3.502" height="10.507"/>
			<path style="fill:#f51d00;" d="M413.274,344.916c0,0.834,0.676,1.511,1.511,1.511c0.834,0,1.511-0.676,1.511-1.511
				c0-0.834-0.676-1.511-1.511-1.511C413.951,343.405,413.274,344.082,413.274,344.916z"/>
			
				<rect x="354.804" y="283.846" transform="matrix(-0.8452 -0.5344 0.5344 -0.8452 503.3409 721.8389)" style="fill:#659ef3;" width="2.79" height="8.371"/>
			
				<rect x="329.921" y="249.996" transform="matrix(-0.9807 0.1957 -0.1957 -0.9807 705.9634 438.6211)" style="fill:#f51d00;" width="2.79" height="8.371"/>
			<path style="fill:#f51d00;" d="M370.554,332.275c0,0.834,0.676,1.511,1.511,1.511c0.834,0,1.511-0.676,1.511-1.511
				c0-0.835-0.676-1.511-1.511-1.511C371.231,330.764,370.554,331.44,370.554,332.275z"/>
			<path style="fill:#f51d00;" d="M391.82,297.511c0,0.834,0.676,1.511,1.511,1.511s1.511-0.677,1.511-1.511
				c0-0.834-0.676-1.511-1.511-1.511S391.82,296.677,391.82,297.511z"/>
			<g>
				<g>
					<path style="fill:#659ef3;" d="M406.044,156.727l-1.388-25.989c-0.046-0.855,0.611-1.586,1.466-1.632
						c0.855-0.046,1.586,0.611,1.632,1.466c0.003,0.055,0.003,0.111,0,0.165l-1.388,25.989c-0.005,0.089-0.081,0.157-0.17,0.153
						C406.114,156.876,406.049,156.808,406.044,156.727z"/>
					<path style="fill:#659ef3;" d="M406.367,163.637l1.388,25.989c0.046,0.855-0.611,1.586-1.466,1.632
						c-0.856,0.046-1.586-0.611-1.632-1.466c-0.003-0.055-0.003-0.111,0-0.165l1.388-25.989c0.005-0.089,0.081-0.158,0.17-0.153
						C406.297,163.489,406.362,163.556,406.367,163.637z"/>
				</g>
				<g>
					<path style="fill:#659ef3;" d="M402.75,160.344l-25.989,1.388c-0.856,0.046-1.586-0.611-1.632-1.467
						c-0.046-0.855,0.611-1.586,1.466-1.632c0.055-0.003,0.112-0.003,0.165,0l25.989,1.388c0.089,0.005,0.157,0.081,0.153,0.17
						C402.898,160.274,402.831,160.339,402.75,160.344z"/>
					<path style="fill:#659ef3;" d="M409.661,160.021l25.989-1.388c0.855-0.046,1.586,0.611,1.632,1.466
						c0.046,0.856-0.611,1.586-1.466,1.632c-0.055,0.003-0.111,0.003-0.165,0l-25.989-1.388c-0.089-0.005-0.158-0.081-0.153-0.17
						C409.512,160.091,409.579,160.026,409.661,160.021z"/>
				</g>
				<g>
					<path style="fill:#f51d00;" d="M403.648,157.853l-19.358-17.395c-0.637-0.573-0.69-1.554-0.117-2.191
						c0.573-0.637,1.553-0.69,2.19-0.117c0.041,0.037,0.081,0.077,0.117,0.117l17.395,19.358c0.06,0.066,0.054,0.168-0.012,0.228
						C403.802,157.909,403.709,157.907,403.648,157.853z"/>
					<path style="fill:#f51d00;" d="M408.763,162.511l19.358,17.396c0.637,0.573,0.689,1.553,0.117,2.191
						c-0.572,0.637-1.553,0.69-2.191,0.117c-0.041-0.037-0.081-0.077-0.117-0.117l-17.396-19.358
						c-0.06-0.066-0.054-0.169,0.012-0.229C408.609,162.456,408.702,162.457,408.763,162.511z"/>
				</g>
				<g>
					<path style="fill:#f51d00;" d="M408.534,157.625l17.396-19.358c0.573-0.637,1.553-0.69,2.191-0.117
						c0.637,0.572,0.689,1.553,0.117,2.191c-0.037,0.041-0.077,0.081-0.117,0.117l-19.358,17.395
						c-0.066,0.06-0.169,0.054-0.228-0.012C408.479,157.779,408.48,157.686,408.534,157.625z"/>
					<path style="fill:#f51d00;" d="M403.876,162.74l-17.395,19.358c-0.573,0.637-1.554,0.69-2.191,0.117
						c-0.637-0.573-0.69-1.554-0.117-2.191c0.037-0.041,0.077-0.081,0.117-0.117l19.358-17.396c0.066-0.059,0.169-0.054,0.228,0.012
						C403.932,162.586,403.93,162.679,403.876,162.74z"/>
				</g>
				<g>
					<path style="fill:#FFFFFF;" d="M393.847,155.806l-11.541-5.306c-0.26-0.119-0.373-0.426-0.254-0.685
						c0.119-0.259,0.426-0.373,0.685-0.254c0.013,0.006,0.026,0.013,0.037,0.019L393.847,155.806z"/>
					<path style="fill:#FFFFFF;" d="M416.198,155.806l11.072-6.226c0.249-0.14,0.564-0.051,0.704,0.197
						c0.14,0.249,0.051,0.564-0.197,0.704c-0.012,0.007-0.025,0.014-0.037,0.019L416.198,155.806z"/>
				</g>
				<g>
					<path style="fill:#FFFFFF;" d="M393.847,164.558l-11.072,6.226c-0.249,0.14-0.564,0.051-0.704-0.197
						c-0.14-0.249-0.052-0.564,0.197-0.704c0.012-0.007,0.025-0.013,0.038-0.019L393.847,164.558z"/>
					<path style="fill:#FFFFFF;" d="M416.198,164.558l11.541,5.306c0.259,0.119,0.373,0.426,0.254,0.685
						c-0.119,0.259-0.426,0.373-0.685,0.254c-0.013-0.006-0.026-0.012-0.037-0.019L416.198,164.558z"/>
				</g>
				<path style="fill:#FFFFFF;" d="M402.903,150.492l-6.6-10.853c-0.148-0.244-0.071-0.562,0.173-0.71
					c0.244-0.148,0.562-0.071,0.71,0.173c0.007,0.012,0.014,0.025,0.02,0.037L402.903,150.492z"/>
				<path style="fill:#FFFFFF;" d="M409.508,150.492l5.697-11.353c0.128-0.255,0.438-0.358,0.693-0.23
					c0.255,0.128,0.358,0.439,0.23,0.694c-0.006,0.012-0.014,0.025-0.02,0.037L409.508,150.492z"/>
				<path style="fill:#FFFFFF;" d="M402.876,169.846l-5.697,11.353c-0.128,0.255-0.439,0.358-0.694,0.23
					c-0.255-0.128-0.358-0.439-0.23-0.693c0.006-0.012,0.013-0.025,0.02-0.037L402.876,169.846z"/>
				<path style="fill:#FFFFFF;" d="M409.481,169.846l6.6,10.853c0.148,0.244,0.071,0.562-0.173,0.71
					c-0.244,0.148-0.562,0.071-0.71-0.173c-0.007-0.012-0.014-0.025-0.02-0.036L409.481,169.846z"/>
			</g>
			<g>
				<g>
					<path style="fill:#659ef3;" d="M101.728,69.001l-1.388-25.989c-0.046-0.855,0.611-1.586,1.466-1.632
						c0.855-0.046,1.586,0.611,1.632,1.466c0.003,0.055,0.003,0.111,0,0.165l-1.388,25.989c-0.005,0.089-0.081,0.157-0.17,0.153
						C101.798,69.149,101.733,69.082,101.728,69.001z"/>
					<path style="fill:#659ef3;" d="M102.051,75.911l1.388,25.989c0.046,0.855-0.611,1.586-1.466,1.632
						c-0.856,0.046-1.586-0.611-1.632-1.466c-0.003-0.055-0.003-0.112,0-0.165l1.388-25.989c0.005-0.089,0.081-0.158,0.17-0.153
						C101.981,75.763,102.046,75.83,102.051,75.911z"/>
				</g>
				<g>
					<path style="fill:#659ef3;" d="M98.434,72.618l-25.989,1.388c-0.856,0.046-1.586-0.611-1.632-1.466
						c-0.046-0.855,0.611-1.586,1.466-1.632c0.055-0.003,0.112-0.003,0.165,0l25.989,1.388c0.089,0.005,0.157,0.081,0.153,0.17
						C98.582,72.548,98.515,72.613,98.434,72.618z"/>
					<path style="fill:#659ef3;" d="M105.345,72.295l25.989-1.388c0.855-0.046,1.586,0.611,1.632,1.466
						c0.046,0.856-0.611,1.586-1.466,1.632c-0.055,0.003-0.111,0.003-0.165,0l-25.989-1.388c-0.089-0.005-0.158-0.081-0.153-0.17
						C105.196,72.365,105.263,72.3,105.345,72.295z"/>
				</g>
				<g>
					<path style="fill:#f51d00;" d="M99.332,70.127L79.974,52.732c-0.637-0.573-0.689-1.554-0.117-2.191
						c0.573-0.637,1.553-0.69,2.19-0.117c0.041,0.037,0.081,0.077,0.117,0.117L99.56,69.899c0.06,0.066,0.054,0.168-0.012,0.228
						C99.486,70.183,99.393,70.181,99.332,70.127z"/>
					<path style="fill:#f51d00;" d="M104.447,74.785l19.358,17.396c0.637,0.573,0.689,1.553,0.117,2.191
						c-0.573,0.637-1.553,0.69-2.191,0.117c-0.041-0.037-0.081-0.077-0.117-0.117l-17.396-19.358
						c-0.06-0.066-0.054-0.169,0.012-0.229C104.293,74.73,104.386,74.731,104.447,74.785z"/>
				</g>
				<g>
					<path style="fill:#f51d00;" d="M104.218,69.899l17.396-19.358c0.573-0.637,1.553-0.69,2.191-0.117
						c0.637,0.572,0.689,1.553,0.117,2.191c-0.037,0.041-0.077,0.081-0.117,0.117l-19.358,17.395
						c-0.066,0.06-0.169,0.054-0.228-0.012C104.163,70.053,104.164,69.96,104.218,69.899z"/>
					<path style="fill:#f51d00;" d="M99.56,75.014L82.165,94.372c-0.573,0.637-1.554,0.69-2.191,0.117
						c-0.637-0.573-0.689-1.553-0.117-2.191c0.037-0.041,0.077-0.081,0.117-0.117l19.358-17.396c0.066-0.059,0.169-0.054,0.228,0.012
						C99.616,74.86,99.614,74.953,99.56,75.014z"/>
				</g>
				<g>
					<path style="fill:#FFFFFF;" d="M89.531,68.08L77.99,62.775c-0.259-0.119-0.373-0.426-0.254-0.685
						c0.119-0.259,0.426-0.373,0.685-0.254c0.013,0.006,0.026,0.013,0.037,0.019L89.531,68.08z"/>
					<path style="fill:#FFFFFF;" d="M111.882,68.08l11.072-6.226c0.249-0.14,0.564-0.051,0.704,0.197
						c0.14,0.249,0.051,0.564-0.197,0.704c-0.012,0.007-0.025,0.014-0.037,0.019L111.882,68.08z"/>
				</g>
				<g>
					<path style="fill:#FFFFFF;" d="M89.531,76.832l-11.072,6.226c-0.249,0.14-0.564,0.051-0.704-0.197
						c-0.14-0.249-0.052-0.564,0.197-0.704c0.012-0.007,0.025-0.013,0.037-0.019L89.531,76.832z"/>
					<path style="fill:#FFFFFF;" d="M111.882,76.832l11.541,5.306c0.259,0.119,0.373,0.426,0.254,0.685
						c-0.119,0.259-0.426,0.373-0.685,0.254c-0.013-0.006-0.026-0.012-0.037-0.019L111.882,76.832z"/>
				</g>
				<path style="fill:#FFFFFF;" d="M98.587,62.766l-6.6-10.853c-0.148-0.244-0.071-0.562,0.173-0.71
					c0.244-0.148,0.562-0.071,0.71,0.173c0.007,0.012,0.014,0.025,0.02,0.037L98.587,62.766z"/>
				<path style="fill:#FFFFFF;" d="M105.192,62.766l5.697-11.353c0.128-0.255,0.438-0.358,0.693-0.23
					c0.256,0.128,0.358,0.439,0.23,0.694c-0.006,0.012-0.014,0.025-0.02,0.037L105.192,62.766z"/>
				<path style="fill:#FFFFFF;" d="M98.56,82.12l-5.697,11.353c-0.128,0.255-0.439,0.358-0.694,0.23
					c-0.255-0.128-0.358-0.439-0.23-0.694c0.006-0.012,0.013-0.025,0.02-0.037L98.56,82.12z"/>
				<path style="fill:#FFFFFF;" d="M105.165,82.12l6.6,10.853c0.149,0.244,0.071,0.562-0.173,0.71
					c-0.244,0.148-0.562,0.071-0.71-0.173c-0.007-0.012-0.014-0.025-0.02-0.037L105.165,82.12z"/>
			</g>
		</g>
		
	</g>
	<g id="DESIGNED_BY_FREEPIK">
		<g>
			<g id="XMLID_319_">
				<g id="XMLID_338_">
					<path id="XMLID_346_" style="fill:#F4F8F9;" d="M260.104,465.465c-0.432,0.443-0.803,0.931-1.108,1.453l-0.465-0.241
						c-0.067-0.298-0.349-0.503-0.659-0.466c-0.331,0.039-0.568,0.339-0.529,0.67c0.039,0.331,0.339,0.568,0.67,0.529
						c0.065-0.008,0.127-0.026,0.183-0.052l0.452,0.234c-0.251,0.554-0.433,1.139-0.539,1.744l0.747,0.132
						c0.23-1.306,0.85-2.507,1.792-3.473L260.104,465.465z"/>
					<path id="XMLID_345_" style="fill:#F4F8F9;" d="M265.592,463.163c-0.171,0-0.341,0.006-0.51,0.017l-0.074-0.626
						c0.188-0.149,0.296-0.389,0.266-0.645c-0.046-0.393-0.402-0.674-0.795-0.628c-0.393,0.046-0.674,0.402-0.628,0.795
						c0.03,0.254,0.189,0.461,0.405,0.564l0.073,0.624c-0.714,0.116-1.403,0.332-2.06,0.646l0.327,0.684
						c0.934-0.447,1.942-0.673,2.995-0.673c0.496,0,0.993,0.053,1.475,0.158l0.161-0.741
						C266.692,463.222,266.142,463.163,265.592,463.163z"/>
					<path id="XMLID_344_" style="fill:#F4F8F9;" d="M272.194,465.711c0.331-0.04,0.566-0.341,0.526-0.672
						c-0.04-0.331-0.341-0.566-0.672-0.526c-0.309,0.038-0.535,0.304-0.53,0.609l-0.416,0.363c-0.418-0.43-0.89-0.813-1.408-1.139
						l-0.404,0.641c1.134,0.715,2.021,1.726,2.563,2.925l0.691-0.313c-0.251-0.554-0.568-1.072-0.942-1.545l0.402-0.351
						C272.065,465.716,272.129,465.719,272.194,465.711z"/>
					<path id="XMLID_343_" style="fill:#F4F8F9;" d="M265.044,473.372c-0.386,0.023-0.775,0.035-1.157,0.035
						c-0.88,0-1.733-0.061-2.478-0.179c-0.39-0.062-0.846-0.155-1.27-0.292c1.046,1.861,3.069,3.125,5.388,3.125
						c2.855,0,5.262-1.916,5.95-4.504c-0.682,0.449-1.505,0.825-2.459,1.123C267.839,473.047,266.464,473.286,265.044,473.372z"/>
					<path id="XMLID_339_" style="fill:#F4F8F9;" d="M265.592,464.68c-3.352,0-6.08,2.666-6.08,5.943
						c0,0.426,0.046,0.849,0.137,1.261c0.673,0.483,2.706,0.89,5.348,0.731c2.879-0.173,5.297-0.957,6.672-2.159
						c-0.005-0.195-0.021-0.39-0.045-0.582C271.244,466.913,268.65,464.68,265.592,464.68z M263.432,471.194
						c-1.02,0-1.85-0.83-1.85-1.85c0-1.02,0.83-1.85,1.85-1.85c1.02,0,1.85,0.83,1.85,1.85
						C265.282,470.365,264.452,471.194,263.432,471.194z M268.17,470.286c-0.75,0-1.36-0.61-1.36-1.36s0.61-1.361,1.36-1.361
						c0.75,0,1.361,0.61,1.361,1.361S268.92,470.286,268.17,470.286z"/>
				</g>
				<path id="XMLID_336_" style="fill:#F4F8F9;" d="M281.595,466.547c-0.295-0.116-0.805-0.309-1.382-0.237
					c-0.551,0.069-0.844,0.341-0.844,1.007v0.866h2.228v1.717h-2.228v5.455h-1.932v-5.455h-1.34v-1.717h1.34v-0.888
					c0-1.68,0.896-2.783,2.568-2.783c0.643,0,1.157,0.122,1.59,0.308L281.595,466.547z"/>
				<path id="XMLID_334_" style="fill:#F4F8F9;" d="M286.298,469.879c-0.177-0.03-0.358-0.046-0.526-0.046
					c-0.896,0-1.51,0.548-1.51,1.614v3.908h-1.932v-7.172h1.873v0.785c0.451-0.673,1.14-0.977,2.021-0.977
					c0.414,0,0.848,0.128,1.094,0.337L286.298,469.879z"/>
				<path id="XMLID_331_" style="fill:#F4F8F9;" d="M293.965,471.757c0,0.222-0.015,0.489-0.037,0.651h-5.085
					c0.207,1.036,0.933,1.488,1.843,1.488c0.622,0,1.295-0.252,1.813-0.688l1.132,1.243c-0.814,0.748-1.85,1.088-3.057,1.088
					c-2.198,0-3.723-1.495-3.723-3.753c0-2.258,1.48-3.797,3.627-3.797C292.544,467.99,293.958,469.522,293.965,471.757z
					M288.851,471.091h3.175c-0.177-0.918-0.733-1.436-1.562-1.436C289.554,469.655,289.021,470.203,288.851,471.091z"/>
				<path id="XMLID_328_" style="fill:#F4F8F9;" d="M301.618,471.757c0,0.222-0.015,0.489-0.037,0.651h-5.085
					c0.207,1.036,0.933,1.488,1.843,1.488c0.622,0,1.295-0.252,1.813-0.688l1.132,1.243c-0.814,0.748-1.85,1.088-3.057,1.088
					c-2.198,0-3.723-1.495-3.723-3.753c0-2.258,1.48-3.797,3.627-3.797C300.197,467.99,301.611,469.522,301.618,471.757z
					M296.504,471.091h3.175c-0.178-0.918-0.733-1.436-1.562-1.436C297.207,469.655,296.674,470.203,296.504,471.091z"/>
				<path id="XMLID_325_" style="fill:#F4F8F9;" d="M309.964,471.764c0,2.154-1.495,3.775-3.471,3.775
					c-0.962,0-1.643-0.378-2.109-0.933v3.708h-1.924v-10.133h1.887v0.792c0.466-0.585,1.155-0.984,2.139-0.984
					C308.469,467.99,309.964,469.61,309.964,471.764z M304.287,471.764c0,1.132,0.747,1.976,1.843,1.976
					c1.14,0,1.85-0.881,1.85-1.976c0-1.095-0.71-1.976-1.85-1.976C305.035,469.788,304.287,470.632,304.287,471.764z"/>
				<path id="XMLID_322_" style="fill:#F4F8F9;" d="M313.068,465.836c0,0.696-0.54,1.229-1.236,1.229
					c-0.696,0-1.229-0.533-1.229-1.229c0-0.696,0.533-1.243,1.229-1.243C312.527,464.592,313.068,465.14,313.068,465.836z
					M312.809,475.354h-1.932v-7.172h1.932V475.354z"/>
				<path id="XMLID_320_" style="fill:#F4F8F9;" d="M316.032,470.736l2.701-2.554h2.368l-3.479,3.375l3.501,3.797h-2.376
					l-2.716-2.901v2.901H314.1v-10.658h1.932V470.736z"/>
			</g>
			<g>
				<path style="fill:#F4F8F9;" d="M184.412,475.289v-1.055c-0.527,0.718-1.391,1.23-2.387,1.23c-1.846,0-3.149-1.406-3.149-3.706
					c0-2.256,1.289-3.721,3.149-3.721c0.952,0,1.816,0.469,2.387,1.245v-3.765h1.099v9.77H184.412z M184.412,473.37v-3.208
					c-0.395-0.615-1.245-1.143-2.124-1.143c-1.421,0-2.27,1.172-2.27,2.739c0,1.567,0.85,2.724,2.27,2.724
					C183.168,474.483,184.017,473.986,184.412,473.37z"/>
				<path style="fill:#F4F8F9;" d="M186.932,471.744c0-2.051,1.465-3.706,3.486-3.706c2.139,0,3.398,1.67,3.398,3.794v0.279h-5.727
					c0.088,1.333,1.025,2.446,2.549,2.446c0.805,0,1.626-0.322,2.182-0.894l0.527,0.718c-0.703,0.703-1.655,1.084-2.812,1.084
					C188.44,475.465,186.932,473.956,186.932,471.744z M190.403,468.947c-1.509,0-2.256,1.274-2.314,2.358h4.643
					C192.718,470.25,192.015,468.947,190.403,468.947z"/>
				<path style="fill:#F4F8F9;" d="M194.607,474.351l0.571-0.791c0.469,0.542,1.362,1.011,2.329,1.011c1.084,0,1.67-0.513,1.67-1.216
					c0-1.714-4.38-0.659-4.38-3.281c0-1.098,0.952-2.036,2.636-2.036c1.201,0,2.051,0.454,2.622,1.026l-0.513,0.762
					c-0.424-0.513-1.201-0.894-2.109-0.894c-0.967,0-1.567,0.483-1.567,1.113c0,1.552,4.38,0.527,4.38,3.281
					c0,1.187-0.952,2.138-2.783,2.138C196.306,475.465,195.325,475.113,194.607,474.351z"/>
				<path style="fill:#F4F8F9;" d="M201.477,466.471c0-0.41,0.337-0.747,0.732-0.747c0.41,0,0.747,0.337,0.747,0.747
					c0,0.41-0.337,0.732-0.747,0.732C201.814,467.203,201.477,466.881,201.477,466.471z M201.667,475.289v-7.075h1.099v7.075H201.667
					z"/>
				<path style="fill:#F4F8F9;" d="M204.582,477.105l0.556-0.82c0.586,0.703,1.289,0.967,2.3,0.967c1.172,0,2.27-0.571,2.27-2.124
					v-1.011c-0.513,0.718-1.377,1.26-2.373,1.26c-1.845,0-3.149-1.377-3.149-3.662c0-2.27,1.289-3.677,3.149-3.677
					c0.952,0,1.802,0.469,2.373,1.245v-1.069h1.098v6.87c0,2.344-1.641,3.076-3.369,3.076
					C206.237,478.16,205.417,477.926,204.582,477.105z M209.709,473.253v-3.091c-0.381-0.615-1.23-1.143-2.109-1.143
					c-1.421,0-2.27,1.128-2.27,2.695c0,1.553,0.849,2.695,2.27,2.695C208.478,474.41,209.328,473.868,209.709,473.253z"/>
				<path style="fill:#F4F8F9;" d="M217.413,475.289v-4.629c0-1.245-0.63-1.641-1.582-1.641c-0.865,0-1.685,0.527-2.095,1.099v5.17
					h-1.099v-7.075h1.099v1.025c0.498-0.586,1.465-1.201,2.519-1.201c1.48,0,2.256,0.747,2.256,2.285v4.966H217.413z"/>
				<path style="fill:#F4F8F9;" d="M219.932,471.744c0-2.051,1.465-3.706,3.486-3.706c2.139,0,3.398,1.67,3.398,3.794v0.279h-5.727
					c0.088,1.333,1.025,2.446,2.549,2.446c0.806,0,1.626-0.322,2.183-0.894l0.527,0.718c-0.703,0.703-1.655,1.084-2.812,1.084
					C221.441,475.465,219.932,473.956,219.932,471.744z M223.404,468.947c-1.509,0-2.256,1.274-2.314,2.358h4.643
					C225.718,470.25,225.015,468.947,223.404,468.947z"/>
				<path style="fill:#F4F8F9;" d="M233.35,475.289v-1.055c-0.527,0.718-1.392,1.23-2.388,1.23c-1.846,0-3.149-1.406-3.149-3.706
					c0-2.256,1.289-3.721,3.149-3.721c0.952,0,1.817,0.469,2.388,1.245v-3.765h1.098v9.77H233.35z M233.35,473.37v-3.208
					c-0.396-0.615-1.245-1.143-2.124-1.143c-1.421,0-2.27,1.172-2.27,2.739c0,1.567,0.849,2.724,2.27,2.724
					C232.105,474.483,232.954,473.986,233.35,473.37z"/>
				<path style="fill:#F4F8F9;" d="M239.692,475.289v-9.77h1.098v3.765c0.572-0.776,1.421-1.245,2.388-1.245
					c1.845,0,3.149,1.465,3.149,3.721c0,2.299-1.304,3.706-3.149,3.706c-0.996,0-1.86-0.513-2.388-1.23v1.055H239.692z
					M242.9,474.483c1.436,0,2.285-1.157,2.285-2.724c0-1.568-0.85-2.739-2.285-2.739c-0.864,0-1.728,0.527-2.109,1.143v3.208
					C241.171,473.986,242.036,474.483,242.9,474.483z"/>
				<path style="fill:#F4F8F9;" d="M247.528,477.061c0.161,0.073,0.425,0.117,0.601,0.117c0.483,0,0.805-0.161,1.055-0.747
					l0.469-1.069l-2.959-7.148h1.187l2.358,5.8l2.344-5.8h1.201l-3.545,8.51c-0.425,1.025-1.143,1.421-2.08,1.435
					c-0.234,0-0.601-0.044-0.806-0.103L247.528,477.061z"/>
			</g>
		</g>
	</g>
</svg>
