
<svg version="1.1" xmlns="http://www.w3.org/2000/svg" xmlns:xlink="http://www.w3.org/1999/xlink" x="0px" y="0px"
	 viewBox="0 0 500 500" style="enable-background:new 0 0 500 500;" xml:space="preserve">
	<g id="Background_Complete">
		<polygon style="opacity:0.4;fill:#EBEBEB;" points="250,209.112 285.791,24.023 262.635,211.113 353.87,46.143 274.034,216.921 
			411.782,88.218 283.079,225.966 453.857,146.13 288.887,237.365 475.977,214.209 290.888,250 475.977,285.791 288.887,262.635 
			453.857,353.87 283.079,274.034 411.782,411.782 274.034,283.079 353.87,453.857 262.635,288.887 285.791,475.977 250,290.888 
			214.209,475.977 237.365,288.887 146.13,453.857 225.966,283.079 88.218,411.782 216.921,274.034 46.143,353.87 211.113,262.635 
			24.023,285.791 209.111,250 24.023,214.209 211.113,237.365 46.143,146.13 216.921,225.966 88.218,88.218 225.966,216.921 
			146.13,46.143 237.365,211.113 214.209,24.023 	"/>
		<g>
			<g>
				<g>
					<g>
						<g>
							<path style="fill:#EBEBEB;" d="M274.92,245.971c-3.897,1.369-8.212,1.379-12.108,0
								C266.708,244.593,271.023,244.603,274.92,245.971L274.92,245.971z"/>
						</g>
					</g>
					<g>
						<g>
							<path style="fill:#EBEBEB;" d="M277.121,251.396c-1.788,3.723-4.832,6.782-8.561,8.562
								C270.339,256.228,273.397,253.184,277.121,251.396L277.121,251.396z"/>
						</g>
					</g>
					<g>
						<g>
							<path style="fill:#EBEBEB;" d="M282.513,253.675c1.369,3.897,1.379,8.212,0,12.108
								C281.134,261.887,281.144,257.572,282.513,253.675L282.513,253.675z"/>
						</g>
					</g>
					<g>
						<g>
							<path style="fill:#EBEBEB;" d="M287.937,251.474c3.723,1.788,6.782,4.832,8.562,8.561
								C292.769,258.256,289.725,255.198,287.937,251.474L287.937,251.474z"/>
						</g>
					</g>
					<g>
						<g>
							<path style="fill:#EBEBEB;" d="M290.217,246.082c3.897-1.369,8.212-1.379,12.108,0
								C298.429,247.461,294.114,247.451,290.217,246.082L290.217,246.082z"/>
						</g>
					</g>
					<g>
						<g>
							<path style="fill:#EBEBEB;" d="M288.016,240.658c1.788-3.723,4.832-6.782,8.561-8.561
								C294.798,235.826,291.739,238.87,288.016,240.658L288.016,240.658z"/>
						</g>
					</g>
					<g>
						<g>
							<path style="fill:#EBEBEB;" d="M282.624,238.378c-1.369-3.897-1.379-8.212,0-12.108
								C284.003,230.167,283.992,234.482,282.624,238.378L282.624,238.378z"/>
						</g>
					</g>
					<g>
						<g>
							<path style="fill:#EBEBEB;" d="M277.199,240.579c-3.723-1.788-6.782-4.832-8.562-8.561
								C272.367,233.798,275.411,236.856,277.199,240.579L277.199,240.579z"/>
						</g>
					</g>
				</g>
			</g>
			<g>
				<g>
					<g>
						<g>
							<path style="fill:#EBEBEB;" d="M284.57,363.199c-3.897,1.369-8.212,1.379-12.108,0
								C276.358,361.82,280.673,361.831,284.57,363.199L284.57,363.199z"/>
						</g>
					</g>
					<g>
						<g>
							<path style="fill:#EBEBEB;" d="M286.771,368.624c-1.788,3.723-4.832,6.782-8.561,8.562
								C279.989,373.455,283.047,370.411,286.771,368.624L286.771,368.624z"/>
						</g>
					</g>
					<g>
						<g>
							<path style="fill:#EBEBEB;" d="M292.163,370.903c1.369,3.897,1.379,8.212,0,12.108
								C290.784,379.115,290.794,374.8,292.163,370.903L292.163,370.903z"/>
						</g>
					</g>
					<g>
						<g>
							<path style="fill:#EBEBEB;" d="M297.587,368.702c3.723,1.788,6.782,4.832,8.561,8.561
								C302.419,375.484,299.375,372.426,297.587,368.702L297.587,368.702z"/>
						</g>
					</g>
					<g>
						<g>
							<path style="fill:#EBEBEB;" d="M299.866,363.31c3.897-1.369,8.212-1.379,12.108,0
								C308.079,364.689,303.764,364.679,299.866,363.31L299.866,363.31z"/>
						</g>
					</g>
					<g>
						<g>
							<path style="fill:#EBEBEB;" d="M297.666,357.886c1.788-3.723,4.832-6.782,8.561-8.562
								C304.447,353.054,301.389,356.098,297.666,357.886L297.666,357.886z"/>
						</g>
					</g>
					<g>
						<g>
							<path style="fill:#EBEBEB;" d="M292.274,355.606c-1.369-3.897-1.379-8.212,0-12.108
								C293.652,347.394,293.642,351.709,292.274,355.606L292.274,355.606z"/>
						</g>
					</g>
					<g>
						<g>
							<path style="fill:#EBEBEB;" d="M286.849,357.807c-3.723-1.788-6.782-4.832-8.562-8.561
								C282.017,351.025,285.061,354.084,286.849,357.807L286.849,357.807z"/>
						</g>
					</g>
				</g>
			</g>
			<g>
				<g>
					<g>
						<g>
							<path style="fill:#EBEBEB;" d="M385.905,200.076c-3.897,1.369-8.212,1.379-12.108,0
								C377.693,198.697,382.008,198.707,385.905,200.076L385.905,200.076z"/>
						</g>
					</g>
					<g>
						<g>
							<path style="fill:#EBEBEB;" d="M388.106,205.5c-1.788,3.723-4.832,6.782-8.561,8.562
								C381.324,210.332,384.383,207.288,388.106,205.5L388.106,205.5z"/>
						</g>
					</g>
					<g>
						<g>
							<path style="fill:#EBEBEB;" d="M393.498,207.779c1.369,3.897,1.379,8.212,0,12.108
								C392.119,215.992,392.13,211.677,393.498,207.779L393.498,207.779z"/>
						</g>
					</g>
					<g>
						<g>
							<path style="fill:#EBEBEB;" d="M398.923,205.579c3.723,1.788,6.782,4.832,8.562,8.561
								C403.754,212.36,400.711,209.302,398.923,205.579L398.923,205.579z"/>
						</g>
					</g>
					<g>
						<g>
							<path style="fill:#EBEBEB;" d="M401.202,200.187c3.897-1.369,8.212-1.379,12.108,0
								C409.414,201.566,405.099,201.555,401.202,200.187L401.202,200.187z"/>
						</g>
					</g>
					<g>
						<g>
							<path style="fill:#EBEBEB;" d="M399.001,194.762c1.788-3.723,4.832-6.782,8.561-8.562
								C405.783,189.93,402.724,192.974,399.001,194.762L399.001,194.762z"/>
						</g>
					</g>
					<g>
						<g>
							<path style="fill:#EBEBEB;" d="M393.609,192.483c-1.369-3.897-1.379-8.212,0-12.108
								C394.988,184.271,394.978,188.586,393.609,192.483L393.609,192.483z"/>
						</g>
					</g>
					<g>
						<g>
							<path style="fill:#EBEBEB;" d="M388.185,194.684c-3.723-1.788-6.782-4.832-8.562-8.561
								C383.353,187.902,386.397,190.96,388.185,194.684L388.185,194.684z"/>
						</g>
					</g>
				</g>
			</g>
			<g>
				<g>
					<path style="fill:#EBEBEB;" d="M78.197,107.974c-1.233,1.335-3.243,1.344-4.473,0C74.954,106.631,76.964,106.639,78.197,107.974
						L78.197,107.974z"/>
				</g>
				<g>
					<path style="fill:#EBEBEB;" d="M79.927,103.772c-1.806,0.095-3.237-1.302-3.163-3.114
						C78.575,100.555,79.994,101.964,79.927,103.772L79.927,103.772z"/>
				</g>
				<g>
					<path style="fill:#EBEBEB;" d="M84.168,102.005c-1.334-1.209-1.343-3.198,0-4.404C85.511,98.807,85.503,100.796,84.168,102.005
						L84.168,102.005z"/>
				</g>
				<g>
					<path style="fill:#EBEBEB;" d="M88.436,103.709c-0.067-1.808,1.352-3.217,3.163-3.114
						C91.674,102.406,90.243,103.803,88.436,103.709L88.436,103.709z"/>
				</g>
				<g>
					<path style="fill:#EBEBEB;" d="M90.231,107.885c1.233-1.335,3.243-1.344,4.473,0C93.473,109.228,91.463,109.22,90.231,107.885
						L90.231,107.885z"/>
				</g>
				<g>
					<path style="fill:#EBEBEB;" d="M88.501,112.087c1.806-0.095,3.237,1.302,3.163,3.114
						C89.853,115.304,88.434,113.895,88.501,112.087L88.501,112.087z"/>
				</g>
				<g>
					<path style="fill:#EBEBEB;" d="M84.259,113.854c1.334,1.209,1.343,3.198,0,4.404C82.917,117.052,82.925,115.063,84.259,113.854
						L84.259,113.854z"/>
				</g>
				<g>
					<path style="fill:#EBEBEB;" d="M79.991,112.15c0.067,1.808-1.352,3.217-3.163,3.114
						C76.754,113.453,78.185,112.056,79.991,112.15L79.991,112.15z"/>
				</g>
			</g>
			<g>
				<g>
					<path style="fill:#EBEBEB;" d="M308.365,105.663c-1.233,1.335-3.243,1.344-4.473,0
						C305.123,104.319,307.133,104.327,308.365,105.663L308.365,105.663z"/>
				</g>
				<g>
					<path style="fill:#EBEBEB;" d="M310.096,101.46c-1.806,0.095-3.237-1.302-3.163-3.114
						C308.743,98.243,310.162,99.652,310.096,101.46L310.096,101.46z"/>
				</g>
				<g>
					<path style="fill:#EBEBEB;" d="M314.337,99.693c-1.334-1.209-1.343-3.198,0-4.404C315.68,96.495,315.671,98.485,314.337,99.693
						L314.337,99.693z"/>
				</g>
				<g>
					<path style="fill:#EBEBEB;" d="M318.605,101.397c-0.067-1.808,1.352-3.217,3.163-3.114
						C321.842,100.094,320.411,101.491,318.605,101.397L318.605,101.397z"/>
				</g>
				<g>
					<path style="fill:#EBEBEB;" d="M320.399,105.573c1.233-1.335,3.243-1.344,4.473,0
						C323.642,106.917,321.632,106.908,320.399,105.573L320.399,105.573z"/>
				</g>
				<g>
					<path style="fill:#EBEBEB;" d="M318.669,109.775c1.806-0.095,3.237,1.302,3.163,3.114
						C320.022,112.992,318.603,111.583,318.669,109.775L318.669,109.775z"/>
				</g>
				<g>
					<path style="fill:#EBEBEB;" d="M314.428,111.542c1.334,1.209,1.343,3.198,0,4.404
						C313.085,114.74,313.094,112.751,314.428,111.542L314.428,111.542z"/>
				</g>
				<g>
					<path style="fill:#EBEBEB;" d="M310.16,109.839c0.067,1.808-1.352,3.217-3.163,3.114
						C306.923,111.141,308.354,109.744,310.16,109.839L310.16,109.839z"/>
				</g>
			</g>
			<g>
				<g>
					<path style="fill:#EBEBEB;" d="M433.655,151.207c-1.233,1.335-3.243,1.344-4.473,0
						C430.413,149.863,432.423,149.872,433.655,151.207L433.655,151.207z"/>
				</g>
				<g>
					<path style="fill:#EBEBEB;" d="M435.386,147.004c-1.806,0.095-3.237-1.302-3.163-3.114
						C434.033,143.788,435.452,145.197,435.386,147.004L435.386,147.004z"/>
				</g>
				<g>
					<path style="fill:#EBEBEB;" d="M439.627,145.237c-1.334-1.209-1.343-3.198,0-4.404
						C440.97,142.039,440.961,144.029,439.627,145.237L439.627,145.237z"/>
				</g>
				<g>
					<path style="fill:#EBEBEB;" d="M443.895,146.941c-0.067-1.808,1.352-3.217,3.163-3.114
						C447.132,145.639,445.701,147.035,443.895,146.941L443.895,146.941z"/>
				</g>
				<g>
					<path style="fill:#EBEBEB;" d="M445.689,151.117c1.233-1.335,3.243-1.344,4.473,0
						C448.932,152.461,446.922,152.452,445.689,151.117L445.689,151.117z"/>
				</g>
				<g>
					<path style="fill:#EBEBEB;" d="M443.959,155.319c1.806-0.095,3.237,1.302,3.163,3.114
						C445.312,158.536,443.893,157.127,443.959,155.319L443.959,155.319z"/>
				</g>
				<g>
					<path style="fill:#EBEBEB;" d="M439.718,157.086c1.334,1.209,1.343,3.198,0,4.404
						C438.375,160.284,438.384,158.295,439.718,157.086L439.718,157.086z"/>
				</g>
				<g>
					<path style="fill:#EBEBEB;" d="M435.45,155.383c0.067,1.807-1.352,3.217-3.163,3.114
						C432.213,156.685,433.644,155.288,435.45,155.383L435.45,155.383z"/>
				</g>
			</g>
			<g>
				<g>
					<path style="fill:#EBEBEB;" d="M54.311,394.427c-1.233,1.335-3.243,1.344-4.473,0C51.068,393.083,53.078,393.092,54.311,394.427
						L54.311,394.427z"/>
				</g>
				<g>
					<path style="fill:#EBEBEB;" d="M56.041,390.225c-1.806,0.095-3.237-1.302-3.163-3.114
						C54.689,387.008,56.108,388.418,56.041,390.225L56.041,390.225z"/>
				</g>
				<g>
					<path style="fill:#EBEBEB;" d="M60.282,388.458c-1.334-1.209-1.343-3.198,0-4.404C61.625,385.26,61.617,387.25,60.282,388.458
						L60.282,388.458z"/>
				</g>
				<g>
					<path style="fill:#EBEBEB;" d="M64.55,390.162c-0.067-1.807,1.352-3.217,3.163-3.114
						C67.788,388.859,66.357,390.256,64.55,390.162L64.55,390.162z"/>
				</g>
				<g>
					<path style="fill:#EBEBEB;" d="M66.345,394.338c1.233-1.335,3.243-1.344,4.473,0C69.587,395.681,67.578,395.673,66.345,394.338
						L66.345,394.338z"/>
				</g>
				<g>
					<path style="fill:#EBEBEB;" d="M64.615,398.54c1.806-0.095,3.237,1.302,3.163,3.114
						C65.967,401.757,64.548,400.348,64.615,398.54L64.615,398.54z"/>
				</g>
				<g>
					<path style="fill:#EBEBEB;" d="M60.373,400.307c1.334,1.208,1.343,3.198,0,4.404C59.03,403.505,59.039,401.516,60.373,400.307
						L60.373,400.307z"/>
				</g>
				<g>
					<path style="fill:#EBEBEB;" d="M56.105,398.603c0.067,1.808-1.352,3.217-3.163,3.115
						C52.868,399.906,54.299,398.509,56.105,398.603L56.105,398.603z"/>
				</g>
			</g>
			<g>
				<g>
					<path style="fill:#EBEBEB;" d="M184.193,250.334c-1.233,1.335-3.243,1.344-4.473,0
						C180.95,248.99,182.96,248.999,184.193,250.334L184.193,250.334z"/>
				</g>
				<g>
					<path style="fill:#EBEBEB;" d="M185.923,246.132c-1.806,0.095-3.237-1.302-3.163-3.115
						C184.57,242.915,185.99,244.324,185.923,246.132L185.923,246.132z"/>
				</g>
				<g>
					<path style="fill:#EBEBEB;" d="M190.164,244.365c-1.334-1.208-1.343-3.198,0-4.404
						C191.507,241.167,191.498,243.156,190.164,244.365L190.164,244.365z"/>
				</g>
				<g>
					<path style="fill:#EBEBEB;" d="M194.432,246.068c-0.067-1.808,1.352-3.217,3.163-3.114
						C197.669,244.766,196.238,246.163,194.432,246.068L194.432,246.068z"/>
				</g>
				<g>
					<path style="fill:#EBEBEB;" d="M196.227,250.244c1.233-1.335,3.243-1.344,4.473,0
						C199.469,251.588,197.459,251.58,196.227,250.244L196.227,250.244z"/>
				</g>
				<g>
					<path style="fill:#EBEBEB;" d="M194.497,254.447c1.806-0.095,3.237,1.302,3.163,3.114
						C195.849,257.663,194.43,256.254,194.497,254.447L194.497,254.447z"/>
				</g>
				<g>
					<path style="fill:#EBEBEB;" d="M190.255,256.214c1.334,1.209,1.343,3.198,0,4.404
						C188.912,259.412,188.921,257.422,190.255,256.214L190.255,256.214z"/>
				</g>
				<g>
					<path style="fill:#EBEBEB;" d="M185.987,254.51c0.067,1.807-1.352,3.217-3.163,3.115
						C182.75,255.813,184.181,254.416,185.987,254.51L185.987,254.51z"/>
				</g>
			</g>
		</g>
	</g>

	<g id="Sparkles">
		<g>
			<g>
				<g>
					<g>
						<g>
							<path style="fill:#FFC727;" d="M427.174,302.818c-1.369-3.897-1.379-8.212,0-12.108
								C428.553,294.605,428.543,298.921,427.174,302.818L427.174,302.818z"/>
						</g>
					</g>
					<g>
						<g>
							<path style="fill:#FFC727;" d="M421.75,305.018c-3.723-1.788-6.782-4.832-8.562-8.561
								C416.918,298.237,419.962,301.295,421.75,305.018L421.75,305.018z"/>
						</g>
					</g>
					<g>
						<g>
							<path style="fill:#FFC727;" d="M419.47,310.41c-3.897,1.369-8.212,1.379-12.108,0
								C411.258,309.032,415.573,309.042,419.47,310.41L419.47,310.41z"/>
						</g>
					</g>
					<g>
						<g>
							<path style="fill:#FFC727;" d="M421.671,315.835c-1.788,3.723-4.832,6.782-8.561,8.562
								C414.889,320.667,417.948,317.623,421.671,315.835L421.671,315.835z"/>
						</g>
					</g>
					<g>
						<g>
							<path style="fill:#FFC727;" d="M427.063,318.114c1.369,3.897,1.379,8.212,0,12.108
								C425.684,326.326,425.695,322.011,427.063,318.114L427.063,318.114z"/>
						</g>
					</g>
					<g>
						<g>
							<path style="fill:#FFC727;" d="M432.488,315.913c3.723,1.788,6.782,4.832,8.562,8.561
								C437.319,322.695,434.275,319.637,432.488,315.913L432.488,315.913z"/>
						</g>
					</g>
					<g>
						<g>
							<path style="fill:#FFC727;" d="M434.767,310.521c3.897-1.369,8.212-1.379,12.108,0
								C442.979,311.9,438.664,311.89,434.767,310.521L434.767,310.521z"/>
						</g>
					</g>
					<g>
						<g>
							<path style="fill:#FFC727;" d="M432.566,305.097c1.788-3.723,4.832-6.782,8.561-8.561
								C439.348,300.265,436.289,303.309,432.566,305.097L432.566,305.097z"/>
						</g>
					</g>
				</g>
			</g>
			<g>
				<g>
					<g>
						<g>
							<path style="fill:#FFC727;" d="M117.603,417.988c-1.369-3.897-1.379-8.212,0-12.108
								C118.982,409.776,118.972,414.091,117.603,417.988L117.603,417.988z"/>
						</g>
					</g>
					<g>
						<g>
							<path style="fill:#FFC727;" d="M112.179,420.189c-3.723-1.788-6.782-4.832-8.562-8.561
								C107.347,413.407,110.391,416.466,112.179,420.189L112.179,420.189z"/>
						</g>
					</g>
					<g>
						<g>
							<path style="fill:#FFC727;" d="M109.899,425.581c-3.897,1.369-8.212,1.379-12.108,0
								C101.687,424.202,106.002,424.212,109.899,425.581L109.899,425.581z"/>
						</g>
					</g>
					<g>
						<g>
							<path style="fill:#FFC727;" d="M112.1,431.005c-1.788,3.723-4.832,6.782-8.561,8.561
								C105.319,435.837,108.377,432.793,112.1,431.005L112.1,431.005z"/>
						</g>
					</g>
					<g>
						<g>
							<path style="fill:#FFC727;" d="M117.492,433.285c1.369,3.897,1.379,8.212,0,12.108
								C116.113,441.497,116.124,437.182,117.492,433.285L117.492,433.285z"/>
						</g>
					</g>
					<g>
						<g>
							<path style="fill:#FFC727;" d="M122.917,431.084c3.723,1.788,6.782,4.832,8.562,8.561
								C127.749,437.866,124.705,434.807,122.917,431.084L122.917,431.084z"/>
						</g>
					</g>
					<g>
						<g>
							<path style="fill:#FFC727;" d="M125.196,425.692c3.897-1.369,8.212-1.379,12.108,0
								C133.408,427.071,129.093,427.06,125.196,425.692L125.196,425.692z"/>
						</g>
					</g>
					<g>
						<g>
							<path style="fill:#FFC727;" d="M122.995,420.267c1.788-3.723,4.832-6.782,8.561-8.562
								C129.777,415.436,126.719,418.48,122.995,420.267L122.995,420.267z"/>
						</g>
					</g>
				</g>
			</g>
			<g>
				<g>
					<g>
						<g>
							<path style="fill:#FFC727;" d="M121.784,76.715c-1.369-3.897-1.379-8.212,0-12.108
								C123.163,68.503,123.153,72.818,121.784,76.715L121.784,76.715z"/>
						</g>
					</g>
					<g>
						<g>
							<path style="fill:#FFC727;" d="M116.36,78.916c-3.723-1.788-6.782-4.832-8.562-8.561
								C111.528,72.134,114.572,75.193,116.36,78.916L116.36,78.916z"/>
						</g>
					</g>
					<g>
						<g>
							<path style="fill:#FFC727;" d="M114.08,84.308c-3.897,1.369-8.212,1.379-12.108,0
								C105.868,82.929,110.183,82.939,114.08,84.308L114.08,84.308z"/>
						</g>
					</g>
					<g>
						<g>
							<path style="fill:#FFC727;" d="M116.281,89.733c-1.788,3.723-4.832,6.782-8.561,8.562
								C109.499,94.564,112.558,91.52,116.281,89.733L116.281,89.733z"/>
						</g>
					</g>
					<g>
						<g>
							<path style="fill:#FFC727;" d="M121.673,92.012c1.369,3.897,1.379,8.212,0,12.108
								C120.294,100.224,120.305,95.909,121.673,92.012L121.673,92.012z"/>
						</g>
					</g>
					<g>
						<g>
							<path style="fill:#FFC727;" d="M127.098,89.811c3.723,1.788,6.782,4.832,8.562,8.561
								C131.93,96.593,128.886,93.534,127.098,89.811L127.098,89.811z"/>
						</g>
					</g>
					<g>
						<g>
							<path style="fill:#FFC727;" d="M129.377,84.419c3.897-1.369,8.212-1.379,12.108,0
								C137.589,85.798,133.274,85.788,129.377,84.419L129.377,84.419z"/>
						</g>
					</g>
					<g>
						<g>
							<path style="fill:#FFC727;" d="M127.176,78.994c1.788-3.723,4.832-6.782,8.561-8.562
								C133.958,74.163,130.9,77.207,127.176,78.994L127.176,78.994z"/>
						</g>
					</g>
				</g>
			</g>
			<g>
				<g>
					<path style="fill:#FFC727;" d="M386.873,101.975c-1.335-1.233-1.344-3.243,0-4.473
						C388.216,98.732,388.208,100.743,386.873,101.975L386.873,101.975z"/>
				</g>
				<g>
					<path style="fill:#FFC727;" d="M391.075,103.705c-0.095-1.806,1.302-3.237,3.114-3.163
						C394.292,102.353,392.883,103.772,391.075,103.705L391.075,103.705z"/>
				</g>
				<g>
					<path style="fill:#FFC727;" d="M392.842,107.947c1.209-1.334,3.198-1.343,4.404,0
						C396.04,109.29,394.051,109.281,392.842,107.947L392.842,107.947z"/>
				</g>
				<g>
					<path style="fill:#FFC727;" d="M391.139,112.215c1.808-0.067,3.217,1.352,3.114,3.163
						C392.441,115.452,391.044,114.021,391.139,112.215L391.139,112.215z"/>
				</g>
				<g>
					<path style="fill:#FFC727;" d="M386.962,114.009c1.335,1.233,1.344,3.243,0,4.473
						C385.619,117.252,385.627,115.242,386.962,114.009L386.962,114.009z"/>
				</g>
				<g>
					<path style="fill:#FFC727;" d="M382.76,112.279c0.095,1.806-1.302,3.237-3.114,3.163
						C379.543,113.632,380.953,112.213,382.76,112.279L382.76,112.279z"/>
				</g>
				<g>
					<path style="fill:#FFC727;" d="M380.993,108.038c-1.209,1.334-3.198,1.343-4.404,0
						C377.795,106.695,379.784,106.703,380.993,108.038L380.993,108.038z"/>
				</g>
				<g>
					<path style="fill:#FFC727;" d="M382.697,103.77c-1.807,0.067-3.217-1.352-3.114-3.163
						C381.394,100.533,382.791,101.964,382.697,103.77L382.697,103.77z"/>
				</g>
			</g>
			<g>
				<g>
					<path style="fill:#FFC727;" d="M369.351,352.39c-1.335-1.233-1.344-3.243,0-4.473
						C370.694,349.147,370.686,351.157,369.351,352.39L369.351,352.39z"/>
				</g>
				<g>
					<path style="fill:#FFC727;" d="M373.553,354.12c-0.095-1.806,1.302-3.237,3.114-3.163
						C376.77,352.768,375.361,354.187,373.553,354.12L373.553,354.12z"/>
				</g>
				<g>
					<path style="fill:#FFC727;" d="M375.32,358.362c1.209-1.334,3.198-1.343,4.405,0
						C378.518,359.704,376.529,359.696,375.32,358.362L375.32,358.362z"/>
				</g>
				<g>
					<path style="fill:#FFC727;" d="M373.616,362.629c1.808-0.067,3.217,1.352,3.115,3.163
						C374.919,365.867,373.522,364.436,373.616,362.629L373.616,362.629z"/>
				</g>
				<g>
					<path style="fill:#FFC727;" d="M369.44,364.424c1.335,1.233,1.344,3.243,0,4.473
						C368.097,367.667,368.105,365.657,369.44,364.424L369.44,364.424z"/>
				</g>
				<g>
					<path style="fill:#FFC727;" d="M365.238,362.694c0.095,1.806-1.302,3.237-3.114,3.163
						C362.021,364.046,363.43,362.627,365.238,362.694L365.238,362.694z"/>
				</g>
				<g>
					<path style="fill:#FFC727;" d="M363.471,358.453c-1.209,1.334-3.198,1.343-4.404,0
						C360.273,357.11,362.262,357.118,363.471,358.453L363.471,358.453z"/>
				</g>
				<g>
					<path style="fill:#FFC727;" d="M365.175,354.185c-1.807,0.067-3.217-1.352-3.114-3.163
						C363.872,350.947,365.269,352.378,365.175,354.185L365.175,354.185z"/>
				</g>
			</g>
			<g>
				<g>
					<path style="fill:#FFC727;" d="M155.68,383.86c-1.335-1.233-1.344-3.243,0-4.473C157.024,380.617,157.015,382.628,155.68,383.86
						L155.68,383.86z"/>
				</g>
				<g>
					<path style="fill:#FFC727;" d="M159.882,385.59c-0.095-1.806,1.302-3.237,3.114-3.163
						C163.099,384.238,161.69,385.657,159.882,385.59L159.882,385.59z"/>
				</g>
				<g>
					<path style="fill:#FFC727;" d="M161.649,389.832c1.209-1.334,3.198-1.343,4.404,0
						C164.847,391.174,162.858,391.166,161.649,389.832L161.649,389.832z"/>
				</g>
				<g>
					<path style="fill:#FFC727;" d="M159.946,394.1c1.807-0.067,3.217,1.352,3.114,3.163
						C161.248,397.337,159.851,395.906,159.946,394.1L159.946,394.1z"/>
				</g>
				<g>
					<path style="fill:#FFC727;" d="M155.77,395.894c1.335,1.233,1.344,3.243,0,4.473
						C154.426,399.137,154.434,397.127,155.77,395.894L155.77,395.894z"/>
				</g>
				<g>
					<path style="fill:#FFC727;" d="M151.567,394.164c0.095,1.806-1.302,3.237-3.114,3.163
						C148.35,395.517,149.76,394.098,151.567,394.164L151.567,394.164z"/>
				</g>
				<g>
					<path style="fill:#FFC727;" d="M149.8,389.923c-1.208,1.334-3.198,1.343-4.404,0C146.602,388.58,148.592,388.588,149.8,389.923
						L149.8,389.923z"/>
				</g>
				<g>
					<path style="fill:#FFC727;" d="M151.504,385.655c-1.808,0.067-3.217-1.352-3.115-3.163
						C150.201,382.418,151.598,383.848,151.504,385.655L151.504,385.655z"/>
				</g>
			</g>
			<g>
				<g>
					<path style="fill:#FFC727;" d="M63.409,297.679c-1.335-1.233-1.344-3.243,0-4.473C64.753,294.436,64.744,296.446,63.409,297.679
						L63.409,297.679z"/>
				</g>
				<g>
					<path style="fill:#FFC727;" d="M67.611,299.409c-0.095-1.806,1.302-3.237,3.114-3.163
						C70.828,298.057,69.419,299.476,67.611,299.409L67.611,299.409z"/>
				</g>
				<g>
					<path style="fill:#FFC727;" d="M69.378,303.65c1.209-1.334,3.198-1.343,4.404,0C72.576,304.993,70.587,304.984,69.378,303.65
						L69.378,303.65z"/>
				</g>
				<g>
					<path style="fill:#FFC727;" d="M67.675,307.918c1.808-0.067,3.217,1.352,3.114,3.163
						C68.977,311.155,67.58,309.725,67.675,307.918L67.675,307.918z"/>
				</g>
				<g>
					<path style="fill:#FFC727;" d="M63.499,309.713c1.335,1.233,1.344,3.243,0,4.473C62.155,312.956,62.164,310.946,63.499,309.713
						L63.499,309.713z"/>
				</g>
				<g>
					<path style="fill:#FFC727;" d="M59.296,307.983c0.095,1.806-1.302,3.237-3.114,3.163
						C56.08,309.335,57.489,307.916,59.296,307.983L59.296,307.983z"/>
				</g>
				<g>
					<path style="fill:#FFC727;" d="M57.529,303.741c-1.209,1.334-3.198,1.343-4.404,0C54.331,302.398,56.321,302.407,57.529,303.741
						L57.529,303.741z"/>
				</g>
				<g>
					<path style="fill:#FFC727;" d="M59.233,299.473c-1.808,0.067-3.217-1.352-3.115-3.163
						C57.931,296.236,59.328,297.667,59.233,299.473L59.233,299.473z"/>
				</g>
			</g>
		</g>
	</g>
</svg>
